<svg width="414" height="316" viewBox="0 0 414 316" fill="none" xmlns="http://www.w3.org/2000/svg">
<path d="M134.602 148.965C133.353 158.528 137.594 168.056 144.782 175.826C152.232 183.878 162.882 189.805 174.695 193.643C186.855 197.594 200.183 199.391 213.346 199.726C225.652 200.039 238.961 198.802 249.024 192.917C258.814 187.193 263.405 177.944 265.857 169.022C268.687 158.721 268.777 148.06 272.489 137.886C273.435 135.294 274.624 132.754 276.1 130.309C277.402 128.155 278.977 126.073 281.072 124.307C284.943 121.045 290.91 119.336 296.42 121.187C299.015 122.059 300.877 123.727 301.606 125.818C302.052 127.096 302.122 128.435 302.204 129.749C302.298 131.247 302.397 132.746 302.496 134.244C302.894 140.279 303.292 146.314 303.69 152.35C304.083 158.31 304.516 164.27 304.858 170.232C305.193 176.075 305.275 181.941 304.149 187.741C302.276 197.389 296.641 206.76 288.182 214.081C286.137 215.85 283.913 217.447 281.607 219.012C280.635 219.672 279.197 218.582 280.174 217.919C284.86 214.737 288.895 210.843 292.198 206.786C295.532 202.69 298.114 198.253 299.821 193.609C303.865 182.611 302.311 171.046 301.575 159.798C301.183 153.805 300.791 147.813 300.399 141.82C300.203 138.824 300.007 135.827 299.811 132.831C299.719 131.422 299.648 130.011 299.52 128.604C299.406 127.359 299.189 126.061 298.333 124.971C297.128 123.436 294.774 122.619 292.497 122.485C289.811 122.326 287.317 122.974 285.182 124.213C282.805 125.593 281.058 127.528 279.655 129.514C278.048 131.79 276.815 134.219 275.803 136.683C271.653 146.782 271.509 157.46 269.021 167.805C266.838 176.883 262.716 186.281 253.703 192.774C244.384 199.487 231.394 201.751 218.924 201.979C212.387 202.099 205.837 201.696 199.372 200.966C192.794 200.222 186.285 199.066 180 197.399C167.756 194.149 156.182 188.919 147.704 181.334C139.704 174.177 134.261 165.261 133.54 155.796C133.366 153.514 133.445 151.233 133.821 148.965C133.883 148.593 134.652 148.579 134.602 148.965Z" fill="black"/>
<path d="M134.655 144.973C137.38 137.815 135.446 129.874 130.294 123.613C127.758 120.532 124.395 117.816 120.386 115.835C116.087 113.711 110.459 111.99 105.314 113.162C100.406 114.28 98.3415 118.078 98.1004 121.694C97.792 126.322 100.242 130.66 101.355 135.144C101.979 137.657 102.14 140.152 101.596 142.683C101.065 145.155 99.9734 147.53 98.8805 149.883C96.6756 154.632 94.8585 159.458 93.694 164.422C92.5421 169.332 91.9866 174.332 91.9812 179.32C91.9757 184.259 92.466 189.236 93.603 194.101C93.8897 195.328 94.1479 196.558 94.4511 197.783C94.6431 198.558 93.1698 198.893 92.8817 198.113C91.0416 193.13 90.0757 187.903 89.7353 182.736C89.3954 177.576 89.7046 172.416 90.6251 167.298C91.548 162.168 93.0844 157.101 95.2747 152.199C96.3568 149.777 97.6289 147.403 98.5496 144.94C99.4782 142.456 99.934 139.935 99.547 137.356C98.8175 132.493 95.8934 127.951 95.7281 123.018C95.5961 119.079 97.1072 114.793 101.609 112.493C106.716 109.883 113.484 111.061 118.577 113.048C123.146 114.83 127.075 117.484 130.141 120.611C136.189 126.779 138.88 134.945 136.63 142.511C136.361 143.414 136.02 144.303 135.616 145.176C135.404 145.631 134.474 145.449 134.655 144.973Z" fill="black"/>
<path d="M297.849 234.039C302.411 230.686 306.807 227.178 310.972 223.535C315.113 219.912 318.991 216.082 322.247 211.961C329.077 203.316 332.93 193.559 336.985 184.02C339.189 178.837 341.392 173.654 343.596 168.47C344.679 165.922 345.781 163.377 346.852 160.826C347.688 158.836 348.537 156.624 348.077 154.515C347.621 152.426 345.74 150.888 343.161 150.17C340.536 149.441 337.658 149.488 334.992 150.061C329.231 151.297 324.932 154.669 321.807 158.424C318.719 162.135 316.395 166.215 313.83 170.144C311.23 174.126 308.619 178.103 306.052 182.098C305.763 182.549 305.499 183.018 305.174 183.455C304.869 183.866 304.455 184.244 304.185 184.667C303.917 185.084 303.101 184.719 303.367 184.302C303.642 183.873 303.776 183.382 304.023 182.941C304.305 182.439 304.644 181.952 304.956 181.46C305.597 180.45 306.236 179.44 306.876 178.431C308.196 176.346 309.47 174.245 310.772 172.153C313.3 168.089 315.723 163.957 318.564 160.012C321.497 155.939 325.279 152.039 330.804 149.862C335.858 147.87 342.949 147.302 347.418 150.516C352.216 153.967 349.561 159.499 347.836 163.539C345.553 168.882 343.271 174.225 340.988 179.568C338.823 184.635 336.722 189.721 334.427 194.755C332.202 199.633 329.732 204.464 326.57 209.038C320.446 217.899 311.548 225.301 302.012 232.09C300.854 232.914 299.722 233.76 298.577 234.595C298.098 234.944 297.37 234.391 297.849 234.039Z" fill="black"/>
<path d="M313.968 244.267C318.427 241.137 322.8 237.946 327.098 234.687C331.397 231.427 335.582 228.045 339.397 224.448C343.151 220.908 346.423 217.114 349.371 213.157C352.397 209.094 355.13 204.903 357.678 200.654C360.221 196.414 362.575 192.109 364.82 187.772C365.913 185.66 366.991 183.543 368.049 181.42C368.862 179.788 369.433 178.141 369.471 176.385C369.507 174.725 369.115 173.017 367.905 171.609C366.548 170.031 364.238 169.238 361.812 169.169C359.19 169.094 356.586 169.757 354.231 170.588C351.914 171.406 349.765 172.487 347.94 173.853C344.946 176.093 343.286 178.98 341.598 181.853C339.833 184.856 338.173 187.894 336.448 190.911C336.169 191.398 335.818 191.858 335.526 192.34C335.316 192.684 334.665 192.771 334.264 192.592C333.801 192.385 333.723 191.976 333.934 191.63C334.008 191.508 333.881 191.733 333.945 191.603C333.976 191.542 334.01 191.481 334.042 191.421C334.111 191.289 334.18 191.156 334.249 191.024C334.42 190.694 334.599 190.368 334.788 190.043C335.186 189.36 335.58 188.676 335.973 187.991C336.891 186.39 337.806 184.789 338.736 183.193C339.625 181.668 340.524 180.146 341.479 178.645C342.325 177.315 343.215 176.013 344.389 174.831C347.695 171.503 352.476 169.288 357.722 168.197C360.456 167.628 363.454 167.603 366.054 168.545C368.344 169.375 369.927 170.991 370.722 172.795C371.49 174.538 371.548 176.437 371.225 178.245C370.871 180.231 369.878 182.061 368.963 183.925C366.761 188.411 364.447 192.864 361.977 197.267C359.486 201.707 356.837 206.101 353.882 210.373C351.025 214.502 347.932 218.569 344.282 222.324C340.585 226.128 336.433 229.681 331.983 232.98C327.511 236.296 322.756 239.349 318.017 242.435C316.857 243.191 315.694 243.944 314.532 244.697C314.146 244.948 313.586 244.535 313.968 244.267Z" fill="black"/>
<path d="M367.844 200.394C373.535 203.096 374.545 208.378 373.644 213.089C372.601 218.544 369.219 223.74 365.632 228.463C357.839 238.723 346.97 247.416 334.727 254.646C322.256 262.012 308.431 267.952 294.084 272.905C277.154 278.751 259.499 283.415 241.527 287.003C232.396 288.826 223.166 290.361 213.869 291.603C204.655 292.834 195.383 293.655 186.105 294.542C177.246 295.389 168.345 296.435 159.854 298.608C155.555 299.707 151.498 301.149 147.544 302.835C143.734 304.461 139.99 306.192 135.962 307.493C132.348 308.661 128.561 309.444 124.605 309.214C120.43 308.972 116.668 307.784 113.251 305.969C109.732 304.101 106.579 301.828 103.418 299.628C100.081 297.305 96.8047 294.931 93.6099 292.495C81.0436 282.911 69.605 272.276 61.1644 260.299C52.6452 248.21 47.1183 234.696 46.7437 220.907C46.6594 217.802 46.5561 214.439 47.5516 211.406C48.581 208.27 51.5453 206.53 55.0463 204.993C62.978 201.511 70.9938 198.05 79.5689 195.565C83.6804 194.374 87.9281 193.49 92.2656 192.934C93.8881 192.726 94.6033 194.604 92.9543 194.841C84.1996 196.095 75.9521 198.786 68.1011 201.934C64.1776 203.507 60.3311 205.191 56.4974 206.888C54.8891 207.599 53.1852 208.314 51.9726 209.417C50.674 210.598 50.2166 212.132 49.9983 213.63C49.038 220.218 49.84 227.108 51.5017 233.59C53.1851 240.157 55.9202 246.571 59.5029 252.675C66.5662 264.709 76.787 275.495 88.4333 285.18C94.2224 289.994 100.366 294.554 106.715 298.936C112.653 303.033 119.315 307.904 128.006 306.764C136.218 305.686 142.94 301.708 150.276 298.979C157.959 296.122 166.272 294.486 174.666 293.395C183.246 292.28 191.92 291.687 200.541 290.795C209.695 289.847 218.798 288.61 227.821 287.098C245.677 284.105 263.19 280.006 280.205 274.907C294.682 270.57 308.791 265.433 321.887 259.004C334.459 252.832 346.115 245.418 355.492 236.491C360.09 232.113 364.07 227.35 367.325 222.318C370.35 217.641 373.091 212.187 371.865 206.872C371.321 204.516 369.824 202.371 367.371 200.862C367.024 200.649 367.472 200.218 367.844 200.394Z" fill="black"/>
<path d="M226.509 112.032C225.937 110.931 225.397 109.82 224.847 108.712C224.295 107.599 223.729 106.484 223.241 105.354C222.272 103.104 221.292 100.854 220.104 98.6655C218.971 96.5763 217.503 94.5042 215.787 92.6166C215.563 92.3703 215.334 92.1272 215.098 91.8876C215.047 91.8361 214.996 91.7848 214.945 91.7336C214.938 91.7271 214.853 91.6425 214.916 91.705C214.985 91.7732 214.877 91.6668 214.861 91.6516C214.74 91.5333 214.616 91.416 214.492 91.2996C214.028 90.8667 213.539 90.4503 213.02 90.0559C212.486 89.6508 211.921 89.2746 211.338 88.9119C211.274 88.8723 211.21 88.833 211.146 88.794C211.103 88.768 211.06 88.7424 211.017 88.7164C211.025 88.7216 211.154 88.7956 211.061 88.7427C210.908 88.655 210.755 88.5672 210.6 88.4821C210.301 88.3185 209.995 88.1618 209.684 88.0124C209.057 87.7118 208.405 87.4413 207.73 87.2089C207.657 87.1838 207.583 87.1599 207.511 87.135C207.375 87.0886 207.674 87.1849 207.535 87.1431C207.498 87.1319 207.462 87.12 207.425 87.1087C207.253 87.056 207.081 87.0059 206.907 86.9585C206.574 86.8679 206.236 86.7873 205.895 86.7179C205.545 86.6467 205.19 86.5873 204.833 86.5411C204.757 86.5313 204.68 86.5233 204.604 86.5134C204.486 86.498 204.682 86.5214 204.687 86.5211C204.642 86.5233 204.58 86.5109 204.534 86.5068C204.356 86.4912 204.177 86.4788 203.998 86.4701C203.654 86.4533 203.308 86.4498 202.963 86.4604C202.797 86.4656 202.631 86.4739 202.465 86.4856C202.376 86.4919 202.287 86.5006 202.197 86.5076C202.078 86.517 202.277 86.5007 202.28 86.4987C202.248 86.5143 202.166 86.5117 202.128 86.5164C201.769 86.5602 201.413 86.6202 201.064 86.6964C200.899 86.7323 200.735 86.7717 200.573 86.8146C200.5 86.834 200.427 86.8541 200.354 86.8749C200.319 86.885 200.284 86.8953 200.248 86.9057C200.239 86.9085 200.012 86.9763 200.163 86.9307C200.297 86.8904 200.081 86.9588 200.046 86.9708C199.967 86.9983 199.888 87.0266 199.81 87.0557C199.654 87.1139 199.5 87.1754 199.349 87.2402C199.058 87.3645 198.776 87.5008 198.504 87.6477C198.433 87.6857 198.364 87.7248 198.294 87.7638C198.135 87.8525 198.423 87.6837 198.269 87.778C198.125 87.8666 197.983 87.9567 197.844 88.0504C197.593 88.2196 197.353 88.3978 197.124 88.5838C196.893 88.771 196.673 88.966 196.464 89.1675C196.445 89.186 196.42 89.2219 196.394 89.2351C196.515 89.1722 196.477 89.1516 196.42 89.2117C196.375 89.2581 196.33 89.3041 196.286 89.3507C196.182 89.4599 196.082 89.5707 195.985 89.6829C195.599 90.1276 195.258 90.5952 194.961 91.078C194.891 91.1928 194.823 91.3087 194.757 91.425C194.681 91.5574 194.828 91.2904 194.728 91.4783C194.695 91.5417 194.662 91.6053 194.63 91.6691C194.501 91.9242 194.383 92.1827 194.277 92.4437C194.072 92.9441 193.909 93.4541 193.787 93.9698C193.75 94.1269 193.717 94.2845 193.686 94.4423C193.679 94.4802 193.672 94.518 193.664 94.5558C193.671 94.522 193.688 94.4097 193.662 94.5708C193.647 94.6592 193.633 94.7476 193.621 94.8361C193.571 95.1771 193.534 95.5192 193.509 95.8618C193.308 98.6023 193.842 101.316 194.13 104.04C194.321 105.85 194.244 107.677 193.893 109.473C193.552 111.218 192.828 113.112 191.19 114.417C190.978 114.586 190.744 114.736 190.487 114.865C190.395 114.912 190.301 114.956 190.204 114.997C190.16 115.015 190.115 115.034 190.07 115.051C190.039 115.063 190.009 115.075 189.978 115.086L189.848 115.128C189.662 115.187 189.675 115.184 189.885 115.119C189.396 115.334 188.682 115.219 188.409 114.823C188.137 114.431 188.273 113.925 188.796 113.696C188.749 113.717 188.505 113.871 188.769 113.715C188.743 113.73 189.064 113.542 188.849 113.669C188.691 113.763 188.84 113.673 188.875 113.65C188.972 113.588 189.065 113.521 189.155 113.453C189.322 113.327 189.496 113.207 189.654 113.073C189.732 113.008 189.805 112.939 189.879 112.871C189.992 112.766 189.708 113.051 189.846 112.902C189.888 112.856 189.932 112.811 189.973 112.765C190.117 112.604 190.249 112.438 190.37 112.267C190.502 112.082 190.619 111.892 190.731 111.7C190.81 111.565 190.62 111.912 190.72 111.72C190.742 111.677 190.765 111.634 190.787 111.59C190.843 111.479 190.896 111.368 190.947 111.256C191.139 110.83 191.294 110.393 191.422 109.953C191.555 109.496 191.666 109.036 191.754 108.573C191.761 108.536 191.799 108.324 191.771 108.485C191.744 108.638 191.775 108.458 191.781 108.422C191.802 108.294 191.821 108.166 191.839 108.038C191.871 107.809 191.899 107.579 191.921 107.35C192.009 106.465 192.034 105.577 191.997 104.69C191.891 102.123 191.343 99.5785 191.367 97.0058C191.39 94.4929 191.939 91.9877 193.507 89.7543C194.905 87.7636 197.096 86.0965 199.911 85.3243C202.855 84.5165 206.055 84.906 208.838 85.8824C211.627 86.8612 214.009 88.4427 215.878 90.2863C216.854 91.2486 217.748 92.2563 218.512 93.3252C219.267 94.3825 219.926 95.4771 220.526 96.5902C221.718 98.7978 222.691 101.061 223.58 103.349C224.032 104.511 224.457 105.674 224.853 106.847C225.244 108.002 225.612 109.171 226.094 110.307C226.329 110.862 226.574 111.415 226.829 111.965C226.901 112.121 226.586 112.181 226.509 112.032Z" fill="black"/>
<path d="M232.881 197.773C232.603 197.773 232.603 197.444 232.881 197.444C233.159 197.444 233.16 197.773 232.881 197.773Z" fill="black"/>
<path d="M138.177 131.736C139.004 129.57 141.535 122.722 143.32 120.924C148.015 116.198 156.751 115.387 164.505 114.991C192.509 113.564 220.578 112.518 248.636 113.029C255.48 113.154 263.516 113.894 266.901 118.436C268.607 120.725 268.675 123.492 268.672 126.126C268.664 132.858 268.475 139.59 268.287 146.32C268.074 153.975 267.851 161.685 265.729 169.167C263.607 176.649 262.016 181.826 254.9 187.221L251.219 192.981C241.294 199.588 230.567 200.358 217.408 200.773C194.866 201.485 168.446 195.162 153.044 182.579C135.44 168.197 130.96 150.631 138.177 131.736ZM220.828 169.683C217.648 163.794 213.946 158.071 209.754 152.565C215.034 152.066 219.38 148.188 219.207 144.131C218.948 138.031 211.478 135.325 204.202 136.376C198.126 137.253 191.901 141.111 192.659 146.242C193.07 149.023 195.932 151.262 199.107 152.661C194.943 157.266 191.326 162.159 188.315 167.26C198.835 169.581 209.919 170.407 220.828 169.683Z" fill="black"/>
<path d="M137.154 131.521C137.814 129.79 138.474 128.059 139.207 126.345C139.987 124.523 140.759 122.582 142.049 120.925C143.534 119.018 146.167 117.566 148.752 116.633C151.7 115.568 154.893 115.001 158.111 114.658C161.779 114.268 165.482 114.128 169.174 113.946C173.584 113.728 177.994 113.522 182.406 113.331C191.229 112.95 200.057 112.631 208.889 112.412C217.719 112.192 226.553 112.072 235.388 112.088C239.805 112.096 244.222 112.135 248.638 112.218C251.788 112.277 254.973 112.448 258.043 113.02C260.959 113.564 263.855 114.523 265.987 116.179C268.556 118.174 269.459 120.86 269.667 123.583C269.912 126.792 269.722 130.041 269.668 133.254C269.612 136.62 269.526 139.985 269.434 143.351C269.254 149.933 269.198 156.545 268.13 163.087C267.627 166.171 266.842 169.207 265.929 172.234C265.223 174.571 264.429 176.904 263.247 179.13C262.063 181.36 260.515 183.424 258.562 185.315C258.051 185.81 257.515 186.29 256.959 186.756C256.678 186.99 256.393 187.221 256.103 187.448C255.944 187.572 255.835 187.624 255.791 187.675C255.451 188.067 255.226 188.559 254.956 188.981C254.101 190.319 253.246 191.658 252.391 192.996C251.97 193.654 251.248 194.037 250.494 194.493C249.122 195.321 247.691 196.09 246.185 196.771C240.463 199.357 233.998 200.529 227.442 201.073C220.71 201.631 213.85 201.831 207.094 201.434C200.285 201.034 193.522 200.086 186.973 198.609C180.418 197.13 174.038 195.12 168.099 192.53C162.377 190.035 157.019 186.974 152.488 183.311C147.602 179.359 143.389 174.882 140.264 169.993C137.295 165.351 135.316 160.379 134.413 155.259C133.487 150.003 133.699 144.683 134.798 139.452C135.36 136.773 136.163 134.126 137.154 131.521C137.534 130.52 139.586 130.945 139.204 131.952C135.413 141.919 134.633 152.552 138.671 162.551C140.624 167.389 143.644 171.941 147.457 176.078C151.305 180.251 155.926 184.05 161.253 187.143C171.774 193.252 184.49 197.029 197.43 198.849C203.822 199.748 210.345 200.149 216.843 199.978C223.431 199.805 230.149 199.537 236.523 198.156C239.563 197.497 242.48 196.567 245.197 195.331C246.635 194.677 248.018 193.948 249.32 193.144C249.589 192.978 249.85 192.762 250.142 192.623C250.511 192.448 250.238 192.623 250.331 192.527C250.462 192.393 250.541 192.2 250.636 192.05C251.489 190.716 252.341 189.382 253.193 188.048C253.447 187.651 253.667 187.219 253.966 186.84C254.261 186.465 254.786 186.159 255.177 185.839C255.768 185.356 256.337 184.857 256.879 184.341C260.736 180.672 262.542 176.245 263.901 171.729C264.781 168.806 265.559 165.874 266.035 162.896C266.536 159.766 266.802 156.617 266.967 153.468C267.31 146.934 267.416 140.386 267.532 133.848C267.589 130.658 267.721 127.451 267.581 124.262C267.468 121.702 266.843 119.101 264.364 117.234C262.318 115.693 259.526 114.914 256.766 114.46C253.754 113.965 250.67 113.874 247.599 113.822C238.94 113.676 230.277 113.677 221.618 113.791C204.379 114.017 187.156 114.687 169.952 115.53C166.291 115.709 162.609 115.831 158.969 116.193C155.919 116.496 152.798 116.984 149.991 117.974C147.605 118.816 145.1 120.094 143.779 121.883C142.576 123.512 141.848 125.372 141.101 127.144C140.429 128.737 139.817 130.345 139.204 131.952C138.822 132.952 136.77 132.527 137.154 131.521Z" fill="black"/>
<path d="M219.802 169.898C219.652 169.621 219.502 169.345 219.35 169.068C219.312 168.999 219.274 168.93 219.235 168.861C219.324 169.02 219.197 168.792 219.19 168.779C219.1 168.618 219.01 168.457 218.92 168.296C218.598 167.722 218.271 167.15 217.939 166.579C217.288 165.461 216.618 164.349 215.929 163.244C214.537 161.011 213.069 158.806 211.526 156.633C210.653 155.403 209.755 154.184 208.835 152.974C208.644 152.723 208.643 152.406 208.835 152.155C209.043 151.884 209.367 151.791 209.753 151.753C209.42 151.786 209.895 151.735 209.976 151.724C210.095 151.708 210.214 151.69 210.333 151.67C210.617 151.623 210.898 151.565 211.175 151.499C211.429 151.438 211.678 151.367 211.926 151.294C211.984 151.277 212.111 151.256 211.873 151.312C211.941 151.296 212.008 151.268 212.072 151.246C212.204 151.2 212.335 151.152 212.465 151.103C212.963 150.912 213.441 150.691 213.895 150.445C213.987 150.394 214.109 150.342 214.188 150.28C213.998 150.429 214.149 150.302 214.203 150.27C214.259 150.235 214.316 150.2 214.372 150.164C214.577 150.034 214.777 149.898 214.97 149.756C215.163 149.615 215.35 149.469 215.531 149.318C215.72 149.159 215.95 148.99 216.096 148.807C215.973 148.961 216.026 148.877 216.063 148.839C216.107 148.794 216.151 148.749 216.193 148.704C216.272 148.621 216.348 148.538 216.423 148.453C216.579 148.276 216.727 148.095 216.866 147.91C216.999 147.733 217.123 147.552 217.239 147.369C217.292 147.285 217.343 147.202 217.392 147.117C217.427 147.057 217.547 146.944 217.399 147.107C217.449 147.051 217.475 146.964 217.506 146.901C217.696 146.521 217.849 146.131 217.961 145.734C217.989 145.635 218.015 145.536 218.038 145.436C218.048 145.39 218.058 145.345 218.067 145.299L218.078 145.244C218.095 145.154 218.093 145.171 218.07 145.296C218.117 145.244 218.101 145.088 218.109 145.02C218.125 144.891 218.135 144.762 218.141 144.632C218.161 144.221 218.134 143.808 218.075 143.4C218.073 143.38 218.069 143.245 218.05 143.236C218.073 143.247 218.084 143.412 218.059 143.29C218.037 143.183 218.015 143.077 217.99 142.971C217.942 142.773 217.884 142.576 217.818 142.381C217.758 142.207 217.692 142.035 217.617 141.865C217.575 141.77 217.531 141.675 217.485 141.581C217.469 141.55 217.453 141.519 217.437 141.488C217.403 141.421 217.258 141.258 217.421 141.452C217.298 141.307 217.224 141.121 217.118 140.966C217.011 140.809 216.897 140.655 216.776 140.505C216.656 140.356 216.529 140.21 216.395 140.068C216.359 140.03 216.322 139.992 216.285 139.954C216.152 139.814 216.443 140.102 216.301 139.968C216.223 139.895 216.146 139.821 216.065 139.749C215.773 139.487 215.456 139.241 215.119 139.012C214.951 138.897 214.768 138.795 214.599 138.681C214.855 138.854 214.563 138.663 214.494 138.625C214.385 138.565 214.275 138.507 214.164 138.45C213.784 138.257 213.388 138.083 212.98 137.926C212.774 137.847 212.564 137.774 212.353 137.703C212.142 137.632 212.589 137.775 212.374 137.71C212.325 137.695 212.276 137.68 212.227 137.665C212.099 137.626 211.97 137.589 211.84 137.554C211.395 137.433 210.942 137.331 210.483 137.246C210.251 137.204 210.017 137.166 209.782 137.132C209.674 137.117 209.566 137.102 209.458 137.089C209.393 137.08 209.328 137.073 209.263 137.065C208.957 137.03 209.413 137.077 209.218 137.059C208.213 136.967 207.201 136.942 206.19 136.993C205.962 137.005 205.733 137.02 205.505 137.039C205.437 137.045 205.368 137.051 205.299 137.057C205.206 137.066 205.041 137.121 205.307 137.055C205.183 137.086 205.024 137.087 204.895 137.103C204.376 137.167 203.861 137.251 203.353 137.355C202.835 137.461 202.325 137.587 201.824 137.731C201.711 137.763 201.599 137.796 201.488 137.83C201.424 137.85 201.347 137.866 201.288 137.893C201.531 137.784 201.34 137.877 201.276 137.898C201.033 137.979 200.792 138.064 200.554 138.154C200.056 138.342 199.57 138.549 199.099 138.775C198.874 138.883 198.653 138.995 198.435 139.111C198.337 139.164 198.239 139.217 198.142 139.272C198.084 139.304 198.026 139.338 197.968 139.37C197.783 139.475 198.121 139.277 197.955 139.378C197.116 139.891 196.351 140.457 195.677 141.097C195.521 141.244 195.818 140.951 195.67 141.103C195.628 141.146 195.586 141.189 195.544 141.232C195.475 141.304 195.408 141.377 195.342 141.451C195.183 141.627 195.033 141.808 194.892 141.993C194.77 142.154 194.654 142.318 194.545 142.486C194.489 142.573 194.434 142.661 194.381 142.75L194.353 142.799C194.307 142.879 194.315 142.864 194.378 142.752C194.338 142.783 194.319 142.861 194.299 142.9C194.102 143.281 193.945 143.675 193.832 144.076C193.807 144.165 193.785 144.253 193.764 144.342C193.752 144.395 193.742 144.449 193.73 144.502C193.689 144.685 193.751 144.355 193.733 144.476C193.701 144.686 193.676 144.896 193.665 145.107C193.654 145.313 193.655 145.52 193.667 145.726C193.673 145.821 193.681 145.916 193.691 146.011C193.697 146.069 193.704 146.127 193.712 146.184C193.717 146.223 193.723 146.262 193.73 146.301C193.708 146.184 193.706 146.17 193.723 146.262C193.818 146.687 193.95 147.102 194.146 147.508C194.173 147.562 194.202 147.616 194.228 147.671C194.317 147.852 194.158 147.553 194.224 147.666C194.281 147.763 194.338 147.861 194.4 147.957C194.529 148.159 194.67 148.356 194.822 148.548C194.961 148.725 195.11 148.897 195.267 149.065C195.312 149.114 195.357 149.162 195.403 149.209L195.45 149.257C195.52 149.327 195.512 149.32 195.426 149.234C195.41 149.253 195.7 149.492 195.722 149.511C196.103 149.854 196.517 150.178 196.953 150.481C197.158 150.623 197.369 150.761 197.583 150.895C197.645 150.933 197.707 150.971 197.769 151.009C197.979 151.139 197.588 150.907 197.804 151.03C197.931 151.103 198.058 151.175 198.187 151.246C198.656 151.502 199.143 151.74 199.642 151.961C200.112 152.169 200.35 152.71 200.024 153.071C196.77 156.671 193.848 160.445 191.29 164.359C190.575 165.452 189.89 166.556 189.232 167.67C189.02 167.273 188.808 166.875 188.596 166.478C192.692 167.38 196.871 168.058 201.093 168.505C201.158 168.512 201.223 168.519 201.288 168.526C201.326 168.53 201.497 168.547 201.298 168.527C201.428 168.54 201.558 168.553 201.688 168.566C201.948 168.591 202.208 168.616 202.469 168.64C203.006 168.689 203.544 168.734 204.082 168.776C205.142 168.858 206.204 168.926 207.267 168.979C209.394 169.086 211.525 169.134 213.656 169.125C216.05 169.114 218.442 169.029 220.827 168.871C221.382 168.835 221.914 169.271 221.89 169.683C221.862 170.154 221.422 170.455 220.827 170.494C216.547 170.776 212.243 170.824 207.954 170.634C203.622 170.443 199.303 170.015 195.05 169.357C192.688 168.992 190.347 168.552 188.031 168.043C187.71 167.972 187.471 167.805 187.342 167.573C187.202 167.318 187.251 167.096 187.396 166.851C189.752 162.864 192.473 159.004 195.539 155.308C196.396 154.276 197.279 153.257 198.188 152.252L198.569 153.362C196.326 152.368 194.253 151.013 192.927 149.291C191.611 147.582 191.239 145.578 191.782 143.645C192.795 140.04 196.913 137.415 201.258 136.166C205.363 134.987 210.231 135.019 214.164 136.569C216.01 137.296 217.609 138.404 218.676 139.768C219.851 141.269 220.406 143.111 220.252 144.854C219.92 148.608 216.327 152.023 211.601 153.096C210.996 153.234 210.379 153.315 209.753 153.376C210.059 152.969 210.365 152.562 210.67 152.155C213.957 156.475 216.945 160.926 219.614 165.487C220.386 166.805 221.13 168.132 221.852 169.467C222.064 169.86 221.622 170.376 221.109 170.465C220.49 170.573 220.03 170.32 219.802 169.898Z" fill="black"/>
<path d="M213.96 72.2497C215.219 72.6438 216.451 73.0823 217.656 73.5663C204.175 68.1509 184.884 71.5317 177.402 81.9655C174.165 86.4789 173.316 91.7236 171.726 96.724C170.137 101.724 167.431 106.906 161.828 109.767C156.225 112.628 147.133 111.841 144.439 107.124C142.201 103.207 145.068 98.7993 145.741 94.5573C146.227 91.4978 145.514 88.3334 143.718 85.5735C143.213 84.7979 142.599 84.0325 141.681 83.524C139.863 82.5177 137.389 82.7548 135.166 82.5137C129.705 81.9213 125.523 78.1852 124.038 74.1303C122.554 70.0754 123.274 65.752 124.321 61.6183C128.997 43.1587 140.042 25.7449 155.409 11.0507C156.786 9.7339 158.361 8.35904 160.516 7.99685C162.121 7.72727 163.781 8.07025 165.362 8.41077C169.134 9.22302 172.906 10.0353 176.677 10.8475C178.839 11.313 181.346 12.0383 181.883 13.7028C182.534 15.7221 179.763 17.8634 180.892 19.7561C217.68 14.6777 254.523 27.3417 291.867 28.6868C297.063 28.874 302.505 28.8847 307.092 30.7573C311.679 32.6299 314.936 37.1214 312.56 40.6535C309.895 44.615 302.683 44.7824 296.87 44.3984C286.299 43.7 275.728 43.0016 265.157 42.3033C278.12 46.5841 291.083 50.8649 304.047 55.1457C307.604 56.3206 311.281 57.5594 313.863 59.7665C316.444 61.9737 317.608 65.4421 315.51 67.93C312.684 71.2797 306.228 71.005 301.142 70.1108C285.461 67.3541 270.43 62.4561 256.976 55.7185C270.501 64.0785 284.025 72.4385 297.55 80.7985C300.178 82.4232 303.069 84.4968 302.738 87.0659C302.269 90.7127 296 91.9141 291.231 91.4932C276.25 90.1709 263.769 82.4577 252.214 75.0608C257.66 83.0367 262.731 91.1615 267.415 99.4144C268.54 101.397 269.663 103.581 268.897 105.661C268.18 107.606 265.894 109.032 263.405 109.719C257.187 111.435 250.061 109.047 245.642 105.292C241.224 101.538 238.902 96.6561 236.564 91.9356C232.725 84.1877 227.555 77.541 217.656 73.5663" fill="black"/>
<path d="M214.241 71.4674C215.584 71.8923 216.902 72.3528 218.191 72.8658C219.405 73.3486 218.331 74.7487 217.118 74.2668C210.02 71.4466 201.471 71.1385 193.894 72.9708C190.093 73.8898 186.491 75.3766 183.513 77.4099C180.207 79.6675 177.877 82.5042 176.396 85.688C173.024 92.9431 173.153 101.252 166.585 107.502C163.878 110.078 160.228 111.819 155.898 112.179C152.263 112.482 148.287 111.755 145.6 109.788C141.918 107.094 142.263 103.115 143.277 99.6203C143.861 97.6068 144.646 95.6042 144.795 93.5343C144.944 91.4621 144.539 89.3926 143.616 87.4412C143.178 86.5166 142.639 85.5129 141.819 84.7424C140.918 83.8968 139.636 83.6241 138.267 83.519C135.904 83.3377 133.712 83.283 131.517 82.5041C127.505 81.0806 124.627 78.0988 123.255 74.9515C121.429 70.7612 122.122 66.1942 123.161 61.9428C124.127 57.9871 125.403 54.0738 126.944 50.2262C130.042 42.4921 134.236 35.0099 139.351 27.929C141.943 24.3409 144.775 20.8539 147.827 17.4831C149.322 15.8325 150.869 14.2096 152.467 12.6164C153.931 11.1575 155.359 9.54286 157.25 8.38191C159.399 7.06254 161.818 6.89228 164.445 7.38281C167.421 7.9385 170.36 8.64419 173.309 9.27919C177.024 10.0793 183.641 10.8717 182.991 14.8863C182.748 16.3879 181.119 18.0349 181.915 19.5404L180.608 18.9738C193.792 17.1735 207.195 17.5925 220.409 18.9747C233.886 20.3844 247.149 22.7409 260.499 24.6937C267.201 25.674 273.932 26.5616 280.712 27.1646C284.071 27.4634 287.441 27.6943 290.819 27.8349C294.045 27.9692 297.281 28.0002 300.483 28.3602C306.146 28.9969 311.539 31.0554 313.719 35.3289C315.594 39.004 313.349 42.8156 308.644 44.3353C303.604 45.9631 297.796 45.271 292.527 44.9229C285.228 44.4407 277.929 43.9585 270.63 43.4763C268.805 43.3557 266.981 43.2352 265.156 43.1146C265.335 42.6107 265.514 42.1068 265.692 41.6028C274.918 44.6495 284.144 47.6963 293.371 50.7429C297.831 52.2158 302.329 53.6353 306.75 55.1753C310.362 56.4336 314.082 58.0636 316.115 60.7765C317.905 63.1658 318.37 66.3309 316.142 68.6525C314.134 70.7448 310.765 71.4666 307.504 71.5062C303.669 71.5528 299.88 70.7606 296.207 70.009C291.908 69.1293 287.666 68.0889 283.5 66.8929C274.01 64.1683 264.923 60.6563 256.438 56.419L257.726 55.1448C265.229 59.7825 272.732 64.4202 280.234 69.0579C283.986 71.3767 287.737 73.6956 291.488 76.0144C293.315 77.1433 295.141 78.2722 296.967 79.4011C298.528 80.366 300.142 81.3082 301.453 82.4789C303.577 84.375 304.79 87.0767 302.783 89.3241C301.075 91.2372 297.98 92.03 295.096 92.2921C291.55 92.6143 287.861 92.0218 284.459 91.2912C280.642 90.4714 276.969 89.265 273.48 87.8319C265.47 84.541 258.403 80.0775 251.461 75.6346C252.018 75.3069 252.574 74.9792 253.131 74.6515C257.599 81.2016 261.82 87.849 265.78 94.587C266.755 96.2457 267.728 97.9063 268.654 99.5815C269.495 101.103 270.278 102.725 270.207 104.403C270.079 107.436 267.009 109.657 263.411 110.574C255.9 112.489 247.981 109.034 243.478 104.562C238.466 99.5854 236.619 93.4028 233.142 87.8218C229.602 82.1383 224.488 77.2562 217.118 74.2668C215.91 73.7766 216.983 72.3755 218.191 72.8658C224.331 75.3561 229.188 79.1652 232.703 83.7178C236.522 88.6638 238.367 94.2471 241.741 99.3466C245.052 104.352 250.726 109.262 258.626 109.468C261.995 109.556 266.05 108.554 267.579 106.053C268.453 104.622 268.045 103.018 267.406 101.585C266.663 99.9174 265.638 98.3113 264.702 96.7027C260.525 89.5206 256.05 82.4404 251.295 75.4703C250.721 74.629 252.046 73.8995 252.965 74.4872C258.807 78.2264 264.717 81.9498 271.245 84.9816C277.453 87.8646 284.585 90.3376 291.931 90.7316C294.599 90.8746 297.711 90.6011 299.901 89.3231C302.569 87.7659 301.83 85.2657 299.854 83.5403C298.6 82.4455 297.087 81.5514 295.612 80.6399C293.885 79.572 292.157 78.5041 290.43 77.4362C286.925 75.27 283.421 73.1037 279.916 70.9374C272.018 66.0556 264.121 61.1739 256.223 56.2921C255.287 55.7132 256.507 54.5165 257.511 55.0179C264.595 58.5556 272.102 61.6102 279.926 64.0808C283.827 65.3128 287.804 66.4072 291.838 67.3584C295.675 68.263 299.611 69.1598 303.58 69.6534C306.52 70.0189 310.01 70.1514 312.661 68.9325C315.729 67.5218 316.114 64.6181 314.74 62.2817C313.144 59.5684 309.638 57.9926 306.252 56.7793C302.182 55.3207 298.001 54.0272 293.874 52.6645C284.123 49.4442 274.371 46.2239 264.62 43.0037C263.658 42.6863 264.139 41.4247 265.156 41.4919C272.14 41.9534 279.125 42.4148 286.109 42.8762C289.57 43.1048 293.031 43.3342 296.492 43.5621C298.945 43.7237 301.426 43.8192 303.878 43.5992C306.019 43.4073 308.308 42.9497 309.978 41.857C311.755 40.6942 312.587 38.9448 312.198 37.1818C311.793 35.3433 310.359 33.6984 308.536 32.4914C306.376 31.0609 303.504 30.3933 300.736 30.025C297.638 29.613 294.474 29.6 291.342 29.4784C288.14 29.354 284.943 29.1472 281.756 28.8777C275.312 28.3328 268.908 27.5376 262.535 26.6332C249.728 24.8156 237.029 22.5545 224.153 21.0221C211.572 19.5246 198.732 18.7677 186.048 19.9686C184.416 20.1231 182.792 20.3173 181.173 20.5383C180.556 20.6226 180.098 20.4112 179.866 19.9717C179.01 18.3546 180.207 16.8119 180.738 15.2676C181.311 13.6007 180.053 12.6464 178.104 12.056C175.572 11.289 172.808 10.8576 170.188 10.2935C168.85 10.0053 167.512 9.71704 166.174 9.42882C164.731 9.11806 163.242 8.70894 161.727 8.71285C159.25 8.71927 157.581 10.2703 156.16 11.6243C154.538 13.1682 152.977 14.7492 151.462 16.3548C148.422 19.5782 145.584 22.9135 142.968 26.3472C137.786 33.1488 133.473 40.3343 130.196 47.7956C128.561 51.516 127.181 55.3018 126.076 59.1342C124.893 63.2399 123.715 67.5606 124.478 71.7771C125.095 75.1914 127.268 78.6074 131.17 80.5075C133.09 81.4423 135.099 81.7296 137.334 81.8428C139.828 81.9691 142.113 82.3188 143.679 83.944C145.135 85.4541 145.995 87.4113 146.484 89.2327C147.021 91.2313 147.072 93.2572 146.676 95.2727C145.952 98.9522 143.252 103.225 145.451 106.876C146.96 109.382 150.562 110.558 154.015 110.619C158.094 110.691 161.637 109.312 164.337 107.024C171.089 101.305 171.036 92.9442 174.023 85.983C175.409 82.7523 177.496 79.7583 180.6 77.2992C183.271 75.1833 186.539 73.5108 190.066 72.3446C197.206 69.9837 205.465 69.51 212.939 71.2286C214.752 71.6455 216.512 72.1986 218.191 72.8658L217.118 74.2668C215.993 73.8192 214.848 73.4029 213.676 73.0319C212.43 72.6378 212.976 71.0672 214.241 71.4674Z" fill="black"/>
<path d="M157.753 291.478C153.535 289.511 149.331 287.557 145.343 285.322C141.421 283.124 137.658 280.761 134.074 278.25C130.443 275.705 126.902 273.077 123.608 270.276C120.332 267.49 117.249 264.571 114.366 261.542C108.606 255.491 103.794 248.866 99.8719 242.017C95.9221 235.12 92.8645 227.921 90.9179 220.539C88.9755 213.173 88.0346 205.6 88.2266 198.084C88.2499 197.172 88.2942 196.259 88.3471 195.347C88.3984 194.462 89.8836 194.148 90.5134 194.9C91.3683 195.919 92.1942 196.95 92.9677 198.007C93.478 198.704 92.1474 199.58 91.4549 198.898C90.4288 197.886 89.4519 196.852 88.5058 195.795C89.2279 195.646 89.95 195.497 90.6721 195.347C90.0791 202.758 90.6602 210.178 92.3285 217.492C93.9991 224.815 96.6717 232.013 100.272 238.919C103.86 245.799 108.398 252.396 113.745 258.573C119.109 264.77 125.133 270.598 131.96 275.898C135.364 278.54 139.09 280.975 142.899 283.268C146.751 285.587 150.769 287.75 154.937 289.727C155.955 290.21 156.982 290.671 158.038 291.106C158.357 291.237 158.064 291.623 157.753 291.478Z" fill="black"/>
<path d="M326.143 97.8882C330.234 96.034 334.198 94.0358 338.059 91.9143C339.038 91.3769 340.009 90.8322 340.974 90.2805C341.456 90.0046 341.937 89.7269 342.416 89.4474C342.643 89.315 342.869 89.1823 343.095 89.0491C343.062 89.0684 342.981 89.1166 343.13 89.0285C343.18 88.999 343.23 88.9694 343.28 88.9399C343.417 88.8585 343.554 88.777 343.691 88.6954C345.562 87.5813 347.415 86.4503 349.237 85.2901C351.292 83.9812 353.271 82.6044 355.336 81.3057C355.755 81.0426 356.4 80.9697 356.804 81.3057C357.179 81.6175 357.221 82.1185 356.804 82.4261C355.073 83.7027 353.198 84.8623 351.327 86.018C349.44 87.1844 347.527 88.3299 345.575 89.4333C341.736 91.6034 337.788 93.661 333.743 95.6001C331.463 96.6926 329.17 97.7695 326.847 98.8076C326.071 99.1546 325.371 98.2381 326.143 97.8882Z" fill="black"/>
<path d="M332.699 108.304C334.619 108.144 336.526 107.936 338.437 107.721C340.34 107.507 342.275 107.315 344.188 107.083C348.034 106.616 351.863 106.073 355.671 105.453C356.727 105.281 357.781 105.103 358.833 104.92C359.976 104.72 361.103 104.492 362.27 104.388C362.756 104.344 363.182 104.708 363.241 105.042C363.308 105.427 363.003 105.743 362.533 105.869C361.607 106.117 360.64 106.245 359.68 106.394C358.72 106.543 357.759 106.688 356.796 106.827C354.871 107.106 352.941 107.365 351.006 107.605C347.117 108.087 343.21 108.489 339.293 108.813C337.103 108.995 334.896 109.092 332.699 109.217C332.376 109.235 332.101 108.994 332.101 108.76C332.101 108.491 332.376 108.331 332.699 108.304Z" fill="black"/>
<path d="M332.655 122.432C335.633 122.483 338.589 122.757 341.517 123.169C344.418 123.578 347.282 124.135 350.083 124.843C351.715 125.256 353.322 125.714 354.888 126.256C355.353 126.417 355.501 126.958 355.237 127.271C354.922 127.643 354.411 127.699 353.908 127.537C354.081 127.593 353.791 127.499 353.786 127.498C353.697 127.469 353.609 127.441 353.52 127.413C353.372 127.367 353.224 127.321 353.075 127.275C352.848 127.205 352.622 127.131 352.397 127.057C352.338 127.038 352.28 127.018 352.221 126.999C352.162 126.98 352.103 126.961 352.044 126.942C352.129 126.969 352.118 126.966 352.011 126.931C351.344 126.719 350.673 126.514 349.998 126.318C348.633 125.922 347.251 125.562 345.855 125.234C343.101 124.586 340.291 124.077 337.448 123.712C335.858 123.508 334.256 123.335 332.655 123.193C332.388 123.169 332.157 123.035 332.157 122.812C332.157 122.61 332.385 122.428 332.655 122.432Z" fill="black"/>
<path d="M98.2384 74.1297C90.1358 73.9396 82.6736 76.8174 76.9572 81.0594C71.1678 85.3555 67.0666 91.1186 65.6992 97.2057C65.0149 100.252 65.0555 103.519 66.5162 106.435C67.7834 108.965 70.6834 111.727 74.5735 111.663C76.6485 111.629 77.7775 110.423 77.7251 108.896C77.6845 107.713 77.0559 106.558 76.0333 105.673C73.8578 103.79 70.3932 102.977 67.1769 103.077C63.2891 103.199 59.9538 104.945 57.4125 107.088C54.4762 109.565 52.4791 112.616 50.6718 115.631C46.6533 122.333 43.2731 129.887 45.5668 137.306C46.5322 140.428 48.4388 143.413 51.4607 145.677C52.7857 146.669 54.2479 147.468 56.0465 147.868C57.4775 148.187 59.2304 148.338 60.5995 147.78C62.3333 147.074 62.5471 145.464 61.8018 144.185C61.1271 143.027 59.8123 142.139 58.2754 141.684C55.1208 140.749 51.3547 141.332 48.628 142.775C45.1894 144.596 43.5354 147.907 42.7178 150.912C41.8105 154.247 41.6598 157.741 41.716 161.138C41.8278 167.896 43.4794 174.884 48.0324 180.765C49.1232 182.174 50.3716 183.532 51.7801 184.767C52.3671 185.281 51.3844 186.038 50.7937 185.52C44.336 179.857 41.4218 172.528 40.5536 165.155C40.1171 161.449 40.0876 157.681 40.5366 153.974C40.9746 150.358 42.0045 146.612 44.9783 143.679C47.4222 141.27 51.2102 139.836 55.2242 139.878C59.1677 139.92 63.2862 141.693 63.9851 144.88C64.3346 146.473 63.5433 148.119 61.6726 148.951C60.0763 149.66 58.1034 149.669 56.3413 149.391C52.0613 148.715 48.7878 146.025 46.6494 143.255C41.299 136.324 42.4985 127.933 45.9189 120.665C47.6751 116.934 49.7985 113.178 52.4981 109.782C54.8979 106.764 58.092 103.896 62.4159 102.45C65.9234 101.277 70.0309 101.375 73.5182 102.543C76.9328 103.688 79.6599 106.117 79.6135 109.074C79.5864 110.805 78.3848 112.401 76.1409 112.914C74.1886 113.36 71.9816 112.931 70.2573 112.18C66.461 110.526 64.4041 107.066 63.7715 103.894C62.4232 97.1328 65.7592 90.0214 70.8915 84.5717C75.9455 79.2053 83.3114 74.9115 91.9703 73.7219C94.0408 73.4374 96.1357 73.3121 98.2384 73.3818C98.8657 73.4027 98.8712 74.1445 98.2384 74.1297Z" fill="black"/>
<path d="M281.78 220.579C281.363 220.361 281.004 220.123 280.662 219.839C280.318 219.553 279.999 219.251 279.693 218.941C279.108 218.348 278.51 217.691 278.254 216.969C278.013 216.291 279.269 215.881 279.741 216.491C279.885 216.678 280.012 216.853 280.119 217.056C280.087 216.995 280.092 217.008 280.122 217.061C280.143 217.096 280.163 217.132 280.184 217.168C280.231 217.248 280.279 217.328 280.329 217.407C280.526 217.724 280.744 218.032 280.982 218.332C281.472 218.95 281.998 219.423 282.529 220.007C282.839 220.347 282.224 220.812 281.78 220.579Z" fill="black"/>
<path d="M298.634 236.353C297.909 235.898 297.232 235.382 296.692 234.794C296.433 234.512 296.196 234.22 295.981 233.918C295.74 233.579 295.583 233.232 295.454 232.861C295.281 232.367 296.24 232.027 296.562 232.504C296.761 232.801 296.977 233.088 297.17 233.387C297.364 233.687 297.579 233.979 297.815 234.26C298.277 234.811 298.755 235.336 299.339 235.815C299.522 235.966 299.534 236.204 299.339 236.353C299.133 236.51 298.843 236.484 298.634 236.353Z" fill="black"/>
<path d="M314.665 246.053C314.192 245.822 313.745 245.557 313.337 245.262C313.147 245.124 312.966 244.979 312.794 244.828C312.684 244.731 312.583 244.638 312.512 244.522C312.447 244.414 312.386 244.305 312.327 244.196C312.27 244.092 312.363 243.945 312.487 243.895C312.629 243.838 312.79 243.854 312.909 243.937C313.001 244 313.094 244.062 313.19 244.123C313.294 244.189 313.372 244.26 313.459 244.34C313.623 244.49 313.795 244.635 313.977 244.774C314.153 244.908 314.338 245.037 314.53 245.159C314.578 245.189 314.627 245.22 314.675 245.249C314.683 245.254 314.782 245.311 314.705 245.267C314.73 245.281 314.755 245.296 314.78 245.31C314.885 245.37 314.992 245.428 315.101 245.484C315.288 245.581 315.388 245.779 315.256 245.935C315.134 246.08 314.869 246.153 314.665 246.053Z" fill="black"/>
</svg>
