<?xml version="1.0" encoding="UTF-8"?><svg id="Layer_1" xmlns="http://www.w3.org/2000/svg" viewBox="0 0 1000 1000"><path d="m674.8778,471.4066c3.0176,30.2645-7.2262,60.416-24.5891,85.0034-17.9941,25.4811-43.7188,44.2401-72.253,56.3848-29.3732,12.5018-61.5663,18.1877-93.3615,19.2489-29.7242.9921-61.8709-2.9249-86.1787-21.5455-23.6464-18.114-34.7362-47.3843-40.6574-75.6172-6.8368-32.5986-7.0543-66.338-16.0203-98.5322-2.2845-8.2031-5.157-16.2417-8.7236-23.9772-3.1435-6.8177-6.9486-13.4058-12.0093-18.9941-9.3497-10.3244-23.7613-15.7318-37.0725-9.8742-6.2681,2.7582-10.7644,8.0367-12.5266,14.6562-1.0762,4.0426-1.2444,8.2816-1.4435,12.4389-.2271,4.7414-.4666,9.4822-.7052,14.223-.9614,19.0995-1.9227,38.1989-2.8841,57.2984-.9494,18.8619-1.9962,37.7219-2.822,56.5896-.8092,18.4894-1.0068,37.0537,1.7129,55.4078,4.5242,30.5323,18.1344,60.1866,38.5691,83.3529,4.9384,5.5985,10.3114,10.6526,15.8816,15.6067,2.3465,2.087,5.8197-1.3622,3.4605-3.4605-11.319-10.0674-21.0652-22.3911-29.0427-35.2299-8.0544-12.9627-14.2902-27.0026-18.4145-41.6988-9.7674-34.8039-6.013-71.4036-4.236-106.9983.9467-18.964,1.8935-37.928,2.8402-56.892.4734-9.482.9467-18.964,1.4201-28.446.2225-4.4578.3949-8.9228.7038-13.3756.2735-3.9425.7982-8.0477,2.8667-11.4986,2.9116-4.8573,8.5973-7.4409,14.0952-7.8666,6.4902-.5025,12.514,1.5461,17.67,5.467,5.7425,4.367,9.9615,10.4933,13.35,16.7781,3.8829,7.2021,6.8596,14.8864,9.3053,22.6839,10.0243,31.9598,10.3707,65.7513,16.3808,98.4892,5.2741,28.7288,15.2298,58.4677,37.0006,79.0156,22.5088,21.2445,53.8865,28.4077,84.0064,29.1295,15.7909.3784,31.6124-.8949,47.2268-3.2066,15.8902-2.3526,31.6122-6.011,46.7923-11.2885,29.5767-10.2827,57.5317-26.8324,78.0109-50.8367,19.3226-22.6486,32.4702-50.8659,34.2124-80.8153.4201-7.2217.229-14.4414-.6799-21.62-.1491-1.1773-2.007-1.2202-1.8854,0h0Z" style="stroke-width:0px;"/><path d="m674.7417,458.7764c-6.5828-22.6543-1.9107-47.7821,10.5341-67.5951,6.1244-9.7505,14.2474-18.3459,23.933-24.6149,10.3842-6.7212,23.9785-12.1684,36.4049-8.4593,11.8546,3.5384,16.8419,15.558,17.4241,26.9998.7451,14.6459-5.1736,28.3751-7.8618,42.5633-1.5071,7.9544-1.8946,15.8501-.5815,23.8571,1.283,7.8235,3.9193,15.3383,6.559,22.7867,5.3258,15.0277,9.715,30.2987,12.5277,46.0072,2.7825,15.5398,4.1242,31.3615,4.1374,47.1467.0131,15.6313-1.1712,31.3816-3.9175,46.7751-.6926,3.8821-1.3162,7.7762-2.0485,11.6513-.4639,2.455,3.095,3.5134,3.7908,1.0451,4.4446-15.7688,6.7778-32.3095,7.5999-48.6596.8211-16.3297.0743-32.6594-2.1493-48.8546-2.2291-16.2356-5.9403-32.27-11.2309-47.7834-2.6136-7.6638-5.6864-15.1776-7.9102-22.9709-2.243-7.8608-3.344-15.838-2.4094-23.9998,1.7622-15.3897,8.8253-29.762,9.2246-45.3748.3187-12.4626-3.3313-26.0258-14.2057-33.3072-12.3345-8.2591-28.6829-4.529-40.9844,1.7572-11.0363,5.6397-20.5266,14.0376-27.933,23.9333-14.6092,19.5194-21.1077,45.3603-15.673,69.3048.6485,2.8573,1.4715,5.6701,2.449,8.4318.5104,1.4418,2.7586.8667,2.3209-.6398h0Z" style="stroke-width:0px;"/><path d="m280.5553,740.6301c-11.0191-10.6112-21.6383-21.7128-31.6976-33.2414-10.0033-11.4644-19.3705-23.5853-27.2358-36.6275-16.4974-27.356-25.8035-58.2333-35.5987-88.4194-5.3226-16.4026-10.6452-32.8053-15.9678-49.2079-2.617-8.0649-5.2777-16.117-7.8655-24.1913-2.018-6.2963-4.0695-13.2969-2.9584-19.9697,1.1012-6.6135,5.6437-11.4799,11.8752-13.7498,6.3402-2.3094,13.2907-2.1586,19.7318-.3475,13.915,3.9127,24.2982,14.5821,31.8459,26.465,7.4594,11.7438,13.0722,24.6568,19.2687,37.0888,6.2815,12.6025,12.5863,25.1889,18.7866,37.8317.6996,1.4265,1.338,2.9102,2.122,4.2923.7373,1.2996,1.7359,2.4967,2.3896,3.8351.6457,1.322,2.6182.1643,1.9743-1.154-.6632-1.3579-.9866-2.9127-1.5838-4.3061-.6813-1.5898-1.5008-3.1311-2.2543-4.6879-1.5465-3.1951-3.092-6.3909-4.6369-9.5868-3.1892-6.5975-6.2669-13.2452-9.4099-19.8646-6.1075-12.8629-11.9593-25.9378-18.8215-38.4215-7.0855-12.8899-16.2198-25.2306-29.5657-32.1214-12.2072-6.3029-29.3349-8.1009-40.1296,2.0705-11.5909,10.9217-5.1785,28.4285-1.01,41.2123,5.5135,16.9085,11.0269,33.8169,16.5404,50.7254,5.2284,16.0342,10.3035,32.1293,15.8486,48.0578,5.3747,15.4392,11.3405,30.7247,18.9772,45.2018,14.7916,28.0409,36.2855,51.464,59.3182,72.947,2.7974,2.6092,5.5314,5.2863,8.2983,7.928,1.1575,1.1051,2.9146-.6454,1.7586-1.7586h0Z" style="stroke-width:0px;"/><path d="m241.6249,772.9975c-10.7694-9.9067-21.3326-20.0046-31.7138-30.3175-10.384-10.3157-20.4943-21.0182-29.7072-32.4005-9.0686-11.2041-16.9714-23.21-24.0919-35.7324-7.3109-12.8572-13.9109-26.1206-20.0659-39.566-6.1428-13.4187-11.8281-27.0415-17.2511-40.7655-2.6414-6.6845-5.2455-13.3837-7.8007-20.1017-1.964-5.1637-3.3414-10.3772-3.4337-15.9338-.0873-5.2515.8602-10.6595,3.7823-15.1132,3.2777-4.9957,8.8565-7.5048,14.7179-7.7231,6.3317-.2359,12.6238,1.8631,18.311,4.493,5.596,2.5876,10.7876,6.0093,15.1963,10.3314,7.2309,7.0886,11.2418,16.2232,15.3195,25.3146,4.2629,9.5045,8.2723,19.1188,12.4396,28.665.6736,1.5431,1.5199,2.9986,2.227,4.5222.5062,1.0906,2.0782,1.3648,3.046.7987,1.1187-.6543,1.3068-1.9513.7987-3.046-.1782-.3838.1287.3271-.0273-.0841-.0736-.1939-.1558-.385-.2332-.5774-.168-.4179-.3344-.8364-.5-1.2552-.4133-1.0451-.8472-2.0768-1.3038-3.1037-.9612-2.1615-1.9112-4.328-2.8603-6.4949-2.2182-5.0644-4.4274-10.1329-6.6758-15.184-2.1475-4.8244-4.3183-9.6412-6.6245-14.3923-2.0431-4.209-4.1933-8.3276-7.0302-12.0693-7.9849-10.5319-19.532-17.5402-32.2033-20.9925-6.6058-1.7997-13.8474-1.8787-20.1264,1.1016-5.5305,2.625-9.3547,7.7412-11.2746,13.4491-1.8553,5.516-1.9949,11.5247-1.2163,17.2465.855,6.2835,3.2542,12.0743,5.4647,17.9755,5.3172,14.1944,10.907,28.2871,16.8744,42.2214,6.0161,14.0483,12.4157,27.9557,19.5535,41.4728,6.9007,13.068,14.3719,25.938,23.1869,37.8199,8.9315,12.039,18.9585,23.2835,29.7076,33.7227,10.8031,10.4917,22.2878,20.1533,33.7354,29.9219,2.8018,2.3909,5.6097,4.7746,8.4176,7.1583.9332.7922,2.2839-.513,1.3615-1.3615h0Z" style="stroke-width:0px;"/><path d="m111.4861,634.159c-13.7481,8.5487-16.1866,25.2666-14.0113,40.173,2.5193,17.2638,10.6889,33.706,19.3541,48.653,18.8229,32.4684,45.0781,59.9769,74.6483,82.8582,30.1234,23.3094,63.5191,42.1058,98.1728,57.7817,40.8939,18.4987,83.5381,33.2592,126.9487,44.6125,22.0561,5.7684,44.35,10.6276,66.8067,14.5573,22.2554,3.8945,44.6538,6.4938,67.0621,9.2999,21.3996,2.6797,42.8989,5.9917,63.41,12.8661,10.3826,3.4798,20.1841,8.0423,29.7333,13.3794,9.2023,5.1432,18.2469,10.6209,27.9753,14.7389,8.7311,3.6959,17.8789,6.1731,27.4328,5.4467,10.0847-.7667,19.1721-4.5263,27.4257-10.2678,8.5006-5.9133,16.1163-13.1055,23.7505-20.0684,8.0599-7.3511,15.9748-14.8628,23.6917-22.5736,30.3533-30.329,57.9828-63.9817,78.3707-101.8857,20.5778-38.257,33.9277-81.0214,34.8325-124.657.2038-9.8278.4534-20.469-1.9514-30.0673-2.4864-9.9237-9.6465-15.4309-18.1031-20.2946-19.1587-11.0189-38.5205-21.9702-59.2333-29.8332-9.931-3.77-20.1912-6.5686-30.6683-8.3278-3.9191-.6581-5.6467,5.2864-1.6636,6.0343,21.1466,3.9706,41.0682,12.4838,60.032,22.4469,9.4769,4.979,18.7681,10.3074,28.0282,15.6761,3.8848,2.2523,8.0006,4.5146,10.9294,8.0042,3.1369,3.7376,4.2416,8.5912,4.7689,13.3312,2.3195,20.85.3824,42.6547-3.6314,63.1667-4.0662,20.7799-10.6727,41.0769-19.3265,60.3934-17.0611,38.0829-41.7492,72.2172-69.8802,102.8646-13.9835,15.2344-28.8227,29.6667-44.159,43.532-14.3416,12.9659-30.4345,28.3813-51.4285,24.7715-19.835-3.4105-36.071-16.0005-53.7917-24.6349-18.5563-9.0416-38.6367-14.2179-58.9112-17.6697-20.7248-3.5285-41.6778-5.4061-62.5005-8.2296-22.1112-2.9982-44.1007-6.9136-65.8945-11.6998-43.1296-9.4718-85.4326-22.4431-126.5324-38.5774-34.9674-13.7269-69.0477-29.9812-100.6806-50.3268-30.3676-19.5318-58.5219-42.994-81.1699-71.2427-11.1074-13.8542-20.7198-28.9289-28.5821-44.8514-7.309-14.8022-13.9294-32.0596-10.9668-48.8792,1.3137-7.4582,4.9286-14.2439,10.855-19.0206.838-.6754-.2449-2.0386-1.1424-1.4806h0Z" style="stroke-width:0px;"/><path d="m452.8806,354.532c1.3818-3.4841,2.687-7.0019,4.0147-10.507,1.3342-3.5222,2.7015-7.0504,3.8785-10.6278,2.3419-7.1179,4.709-14.2378,7.5774-21.1648,2.7376-6.6113,6.2835-13.1687,10.4277-19.1421.5407-.7793,1.0959-1.5487,1.6656-2.307.1224-.1629.2458-.3251.3693-.4873.0157-.0206.2224-.2881.069-.0904-.1672.2157.0951-.1209.133-.1691.2937-.3743.5912-.7456.8924-1.1139,1.1203-1.3698,2.3005-2.6875,3.5553-3.9356,1.2889-1.282,2.6543-2.4725,4.0628-3.6205.1538-.1253.3084-.2497.4637-.3731.1035-.0823.2081-.1632.3117-.2454-.0208.0165-.3305.2506-.1071.0831.3699-.2773.7388-.5554,1.1145-.8247.7221-.5175,1.4595-1.0136,2.2118-1.4862,1.5143-.9515,3.09-1.8075,4.7205-2.5429.1759-.0793.3534-.1549.5295-.2337.3285-.147-.3941.1577-.0601.0254.0892-.0354.1777-.0729.2667-.1088.4142-.1667.8316-.3253,1.2521-.4752.8039-.2866,1.6192-.5417,2.4439-.7614.846-.2253,1.702-.4133,2.5653-.5595.1839-.0311.3688-.0564.5527-.0877.2853-.0486-.1875.0253-.1996.0245.1084.0067.2566-.0324.3692-.0453.4303-.0496.8618-.0886,1.2941-.1162.832-.0531,1.6666-.0641,2.4996-.0306.4016.0162.8027.0427,1.2028.0797.216.02.4312.0474.6469.0696.289.0297-.1911-.022-.2007-.0281.0779.0493.2761.041.3689.0559.8671.1387,1.7263.3285,2.5707.5695.3983.1137.7933.2384,1.1846.3741.1772.0614.3536.1251.5291.191.0852.032.1703.0644.2552.0975.0219.0086.571.2233.2064.0791-.3231-.1278.1988.0889.2825.1269.1916.0869.382.1764.571.2687.3766.184.7479.3787,1.1136.5836.7022.3935,1.3831.8249,2.0404,1.2895.1703.1204.3378.2443.506.3675.3837.2809-.3105-.2533.06.0449.3486.2805.6928.5655,1.028.8621.6052.5355,1.1851,1.0995,1.739,1.6879.5577.5924,1.089,1.2096,1.5943,1.8472.0466.0587.1068.1722.1683.2141-.2921-.1992-.2009-.2642-.0613-.0742.1078.1468.217.2924.3237.44.2495.3454.4917.696.7271,1.0512.9324,1.4073,1.7545,2.8869,2.472,4.4148.1706.3634.334.73.4942,1.098.1824.4192-.1729-.4257.0679.1688.0812.2006.1608.4018.2387.6037.3114.8074.5955,1.6253.8528,2.4515.4932,1.5833.8881,3.1973,1.1821,4.8293.0896.4971.1705.9958.2445,1.4954.0177.1197.0348.2395.0521.3592-.0155-.1071-.0577-.4624.0061.0473.035.2796.0687.5594.0998.8395.1201,1.0792.2084,2.1619.2692,3.2461.4864,8.6724-.8029,17.2596-1.4988,25.8793-.4624,5.728-.2754,11.5097.5715,17.1932.823,5.523,2.5734,11.5173,6.5284,15.6458.5138.5364,1.0778,1.0094,1.6987,1.4198.2221.1468.4496.2856.6824.415.1075.0597.2159.1182.3257.1735.0732.0369.1465.0748.2209.1092l.3142.1326c.4487.1869.4187.1774-.0901-.0287,1.1833.6796,2.9063.3159,3.5674-.9354.6562-1.2419.3281-2.8418-.9354-3.5674.1141.0655.7014.5534.0654.062.0611.0472-.7138-.5493-.1938-.1469.3821.2957.0222.0123-.0634-.0598-.2349-.1981-.4588-.4076-.6767-.6241-.4028-.4001-.8238-.7791-1.2048-1.2013-.1879-.2083-.3649-.4246-.5432-.6409-.2736-.3322.4119.5688.0803.0987-.1022-.1449-.2073-.2877-.3074-.4342-.3469-.5078-.6655-1.0347-.9594-1.5748-.3183-.585-.6001-1.1863-.8722-1.7939-.1913-.4271.2679.6687.0282.0633-.0544-.1375-.1099-.2746-.1633-.4125-.1352-.3496-.2635-.7018-.3854-1.0562-.4645-1.3499-.8388-2.7302-1.1483-4.1234-.3211-1.4453-.5894-2.9038-.8022-4.3689-.0167-.1147-.1088-.786-.0405-.2773.0649.484-.0102-.0863-.0242-.1985-.0507-.4046-.0976-.8097-.1408-1.2152-.0773-.7253-.143-1.4519-.198-2.1792-.2117-2.7991-.2709-5.6111-.1823-8.4167.2566-8.1234,1.5789-16.1754,1.5221-24.3171-.0554-7.9521-1.3818-15.88-5.1697-22.9478-3.3762-6.2996-8.669-11.5753-15.4682-14.019-7.1118-2.5561-14.8402-1.3237-21.5623,1.7664-6.7383,3.0975-12.491,8.102-17.007,13.9364-2.3571,3.0452-4.5158,6.234-6.3602,9.6167-1.8242,3.3457-3.4158,6.8098-4.8665,10.3322-2.8773,6.9862-5.2292,14.149-7.3768,21.389-1.0903,3.6756-2.1167,7.3571-3.0749,11.0687-.9439,3.6564-1.8317,7.355-2.9963,10.9485-.5693,1.7568-1.1599,3.5065-1.7763,5.2474-.1746.4931.587.6838.7736.2133h0Z" style="stroke-width:0px;"/><path d="m437.4879,625.8648c.6711,0,.6722-1.043,0-1.043-.6711,0-.6722,1.043,0,1.043h0Z" style="stroke-width:0px;"/><path d="m666.239,416.8868c-1.9988-6.8554-8.1104-28.5247-12.4241-34.2146-11.3404-14.9583-32.4399-17.5242-51.1695-18.7759-67.6434-4.5157-135.4419-7.8249-203.2168-6.2091-16.5315.3943-35.9409,2.7361-44.1164,17.1105-4.1209,7.2432-4.2863,15.9989-4.2782,24.3344.0199,21.3052.4745,42.6083.9286,63.9071.5165,24.2223,1.0535,48.6213,6.1789,72.3008,5.1254,23.6773,8.9699,40.0579,26.158,57.1319l8.8911,18.2282c23.9735,20.9088,49.8841,23.3429,81.668,24.6571,54.4502,2.2535,118.2658-17.7543,155.4697-57.5748,42.5211-45.5125,53.3439-101.1013,35.9107-160.8955Zm-199.6409,120.084c7.6806-18.6337,16.6242-36.7461,26.749-54.1712-12.7521-1.577-23.2501-13.8487-22.8333-26.6892.6269-19.3038,18.6704-27.8655,36.2441-24.5412,14.6771,2.7771,29.7135,14.9863,27.8822,31.2221-.9921,8.8009-7.9057,15.8868-15.576,20.3142,10.0591,14.5726,18.7958,30.0566,26.0682,46.1998-25.4116,7.3445-52.1821,9.9578-78.5341,7.6655Z" style="stroke-width:0px;"/><path d="m668.7146,416.2043c-1.5956-5.4776-3.1892-10.9553-4.9606-16.3795-1.8823-5.7637-3.7472-11.9062-6.8625-17.1491-3.5874-6.0374-9.948-10.6309-16.1917-13.5853-7.1221-3.37-14.8348-5.1636-22.6066-6.2478-8.8587-1.2359-17.804-1.6785-26.7232-2.2546-10.6511-.6879-21.3045-1.3408-31.9607-1.9442-21.3114-1.2066-42.6349-2.2153-63.9694-2.91-21.3275-.6945-42.6664-1.0751-64.0055-1.0255-10.6693.0248-21.3396.1484-32.0058.4114-7.6089.1877-15.3025.7291-22.7176,2.5393-7.0438,1.7196-14.038,4.7546-19.1874,9.995-6.2051,6.3147-8.3869,14.816-8.8887,23.4315-.5915,10.1555-.1338,20.4377-.0038,30.6039.1362,10.6518.3428,21.3024.5652,31.9527.4349,20.8299.572,41.7526,3.1497,62.4561,1.215,9.759,3.1117,19.3679,5.3185,28.9462,1.7037,7.3951,3.6216,14.7773,6.477,21.8227,2.8607,7.0582,6.5999,13.5891,11.3154,19.5736,1.2347,1.5669,2.5292,3.0863,3.874,4.5598.6766.7413,1.3659,1.471,2.0666,2.1896.3831.3929.6475.557.7537.7174.8216,1.2417,1.3651,2.7986,2.0162,4.1335,2.0658,4.2353,4.1317,8.4706,6.1975,12.7059,1.0155,2.0819,2.7596,3.2952,4.5816,4.7366,3.3145,2.622,6.7702,5.055,10.408,7.2089,13.8213,8.1834,29.4374,11.8934,45.2714,13.6139,16.2612,1.767,32.8323,2.4009,49.1515,1.1447,16.4473-1.2661,32.782-4.2664,48.6011-8.9426,15.8335-4.6805,31.2449-11.0413,45.5896-19.2362,13.822-7.8963,26.7635-17.5809,37.7064-29.1754,11.8028-12.5055,21.9785-26.6728,29.5285-42.1428,7.1704-14.6923,11.9516-30.4253,14.131-46.6273,2.2373-16.633,1.7244-33.4679-.9281-50.0218-1.3587-8.4795-3.2978-16.8552-5.6912-25.1009-.9193-3.1671-5.8756-1.8199-4.9512,1.365,9.1554,31.5419,11.0389,65.1898,1.2869,96.8334-4.718,15.3092-12.0126,29.7141-21.224,42.8053-9.2925,13.2064-20.4553,25.2276-33.3219,35.0161-25.4126,19.333-56.1276,31.2871-87.3853,37.0454-15.4388,2.8441-31.1951,4.1129-46.8896,3.5723-15.9142-.5482-32.1403-1.3949-47.5373-5.7668-7.3429-2.0849-14.3887-5.0273-20.9507-8.937-3.4744-2.0701-6.8161-4.3775-9.9605-6.9218-.65-.5259-1.2797-1.2108-1.984-1.6489-.8922-.5551-.2321,0-.458-.3033-.3156-.4235-.5058-1.037-.7364-1.5098-2.0591-4.2215-4.1182-8.443-6.1773-12.6645-.613-1.2567-1.1428-2.6242-1.8648-3.8232-.714-1.1856-1.9812-2.1551-2.9255-3.1669-1.4277-1.5298-2.8024-3.1093-4.112-4.7414-9.317-11.6104-13.6777-25.6205-16.9612-39.913-2.1245-9.2473-4.0046-18.5275-5.1556-27.9519-1.2096-9.9043-1.8518-19.8689-2.251-29.8359-.8283-20.6771-1.0841-41.3972-1.3644-62.088-.1368-10.0948-.4563-20.2418-.1179-30.3341.2717-8.1028,1.7823-16.3314,7.7715-22.2406,4.9416-4.8757,11.6849-7.3437,18.3509-8.7784,7.2771-1.5662,14.7258-1.8557,22.1437-2.0193,20.9151-.4613,41.8392-.4579,62.7559-.099,41.6391.7144,83.2405,2.8362,124.7959,5.5039,8.8429.5677,17.7365.9517,26.5294,2.0974,7.3681.9601,14.9074,2.503,21.6865,5.6371,5.763,2.6643,11.8129,6.7081,15.004,12.3693,2.9062,5.1558,4.6652,11.0428,6.4695,16.648,1.6234,5.0432,3.1018,10.1297,4.5834,15.2158.9223,3.1661,5.8787,1.8191,4.9512-1.365Z" style="stroke-width:0px;"/><path d="m469.0736,537.6533c.3617-.8768.7257-1.7526,1.0927-2.6272.0918-.2186.1836-.4372.2758-.6557-.2129.5047.0922-.2171.1105-.2603.216-.5094.4329-1.0183.6508-1.5269.7782-1.8162,1.5684-3.6273,2.3706-5.4331,1.5723-3.5392,3.1907-7.058,4.8545-10.5551,3.3615-7.0655,6.9086-14.0427,10.6365-20.9219,2.1087-3.8912,4.2762-7.7504,6.4987-11.5777.4614-.7945.4648-1.7973,0-2.5915-.5015-.8569-1.2856-1.1527-2.2168-1.2715.8037.1026-.343-.058-.5387-.093-.2886-.0516-.5763-.1088-.8628-.1713-.6857-.1497-1.3646-.3303-2.0343-.5403-.6138-.1924-1.2134-.4182-1.8137-.6485-.1408-.054-.4454-.121.128.0576-.1628-.0507-.3257-.1412-.481-.2114-.3193-.1443-.6355-.2953-.9486-.4526-1.2024-.6037-2.3569-1.3027-3.4534-2.0821-.224-.1592-.5167-.3236-.7083-.5209.4587.4723.0929.071-.0352-.0317-.1374-.1101-.2737-.2215-.409-.3342-.4964-.4135-.9782-.8444-1.445-1.291-.4672-.447-.9187-.9104-1.3541-1.3884-.4571-.5019-1.013-1.0359-1.3657-1.6165.2963.4878.1692.2224.0792.1-.1045-.1421-.2109-.2827-.3143-.4255-.1896-.2617-.3746-.5268-.5551-.7948-.3771-.5601-.7342-1.1336-1.0697-1.7195-.3205-.5596-.6215-1.1303-.9017-1.7111-.1272-.2637-.2502-.5294-.3688-.7971-.0834-.1882-.3738-.5465-.0171-.0324-.1215-.1752-.1827-.453-.2586-.6523-.4576-1.2004-.8272-2.4347-1.0987-3.6905-.0679-.3138-.1294-.6289-.1849-.9452-.0252-.1438-.0493-.2877-.0719-.432l-.0265-.1732c-.0409-.285-.0343-.2311.0197.1617-.1142-.1641-.0752-.6578-.0945-.8718-.0367-.4083-.0626-.8177-.0776-1.2273-.0478-1.3008.0175-2.6068.1594-3.9002.0067-.0611.0155-.4899.0616-.5185-.0558.0346-.0828.5582-.0212.1697.0533-.3366.1051-.6731.167-1.0082.116-.6273.2541-1.2504.4152-1.8676.1432-.5488.3044-1.0929.4843-1.6309.101-.302.2078-.602.3204-.8999.0373-.0985.0752-.1968.1137-.2948.0833-.2118.4343-.7261.0403-.1123.296-.4612.4764-1.0499.7307-1.539.2581-.4964.5339-.9835.827-1.46.2897-.471.5963-.9317.919-1.3808.0875-.1218.1779-.2415.266-.3628.3215-.4426-.3798.4704-.0368.0451.1874-.2323.3741-.4649.5679-.692.7073-.8291,1.4724-1.6086,2.286-2.3336.4069-.3626.848-.6858,1.2553-1.0463-.618.5472.0887-.0592.2549-.1788.2624-.189.5282-.3731.7975-.5522.9179-.6106,1.8741-1.1632,2.859-1.6584.498-.2504,1.0043-.4814,1.5139-.7069.5091-.2254-.5685.2273-.0501.022.1186-.047.2366-.0956.3553-.1424.3098-.122.6215-.2389.9351-.3507,1.0737-.3828,2.1684-.7063,3.2766-.9732.5617-.1353,1.1269-.256,1.6948-.3625.2598-.0487.5202-.0945.7811-.1373.157-.0258.3143-.0505.4717-.0742.7381-.1109-.3619.0387.1083-.0181,2.4287-.2933,4.8714-.3722,7.3133-.2096.5525.0368,1.1043.0852,1.6548.145.1659.018.3317.0371.4973.0572.2252.0273.624.2023-.0191-.0057.3007.0972.6836.0991.9954.1501,1.2546.2052,2.4985.471,3.7264.7999,1.2497.3348,2.4825.7324,3.6933,1.1883.2712.1021.5413.2072.8103.3151.1549.0622.3396.1136.4837.1978-.5882-.3437-.1252-.0522.0284.015.5873.2566,1.1686.5271,1.7431.8113,1.2035.5954,2.3775,1.2507,3.5148,1.9645.5432.341,1.0781.6952,1.6035,1.063.2384.1669.4749.3364.7094.5087.1405.1033.2793.2089.4194.3127.4482.3323-.3691-.297.032.0242,2.0264,1.6229,3.8734,3.4158,5.5026,5.4396.3755.4664-.3405-.4618.0157.0188.1012.1366.204.272.3041.4093.1666.2285.33.4594.4898.6927.3823.5581.7447,1.1299,1.085,1.7146.2968.5101.5766,1.03.8383,1.5589.1369.2768.269.556.3958.8376l.0686.1538c.1107.255.0909.2054-.0592-.149.0944.0976.1423.347.1901.4684.4759,1.2079.8558,2.4542,1.1275,3.7238.0597.2788.1144.5586.1638.8393.0298.1692.0547.3392.0837.5085.0989.5779-.0527-.4679-.0083-.0846.077.6646.1389,1.3292.1649,1.9979.0254.6522.0233,1.3056-.0057,1.9577-.0134.3018-.0327.6032-.0574.9043-.015.1824-.0321.3647-.0513.5468-.0129.1234-.0269.2467-.0419.3699.0519-.3718.0569-.4134.0151-.1246-.2291,1.3462-.5488,2.66-1.0219,3.9429-.0638.1731-.1334.344-.1982.5168-.2146.5723.1707-.3739.0107-.017-.1386.3091-.276.6182-.4245.9227-.3114.6385-.6527,1.2623-1.0197,1.8706-.3372.559-.6963,1.1046-1.0743,1.6368-.1085.1528-.2187.3043-.3303.4548l-.1123.1503c-.1703.2239-.151.1997.0581-.0725.0371.0594-.6632.8157-.7146.8764-.9219,1.0879-1.9201,2.1103-2.9747,3.0698-.4954.4508-1.0034.8876-1.5224,1.311-.1484.1211-.2992.2393-.448.3598-.5078.4114.4373-.3235-.0859.068-.3065.2294-.6128.4588-.9241.6817-1.1339.8121-2.3092,1.5633-3.5155,2.263-1.1339.6577-1.7091,2.3699-.921,3.5126,7.8585,11.3943,14.9168,23.3369,21.0967,35.7225,1.726,3.4593,3.3822,6.9531,4.9715,10.4772.5114-1.2571,1.0229-2.5142,1.5343-3.7714-9.8931,2.8533-19.9862,5.0004-30.185,6.4154-.1569.0218-.3138.0432-.4707.0648-.0929.0128-.5055.0671-.0239.0035-.3141.0415-.6281.0829-.9423.1234-.6284.0809-1.2571.159-1.8862.2343-1.2975.1554-2.5963.2991-3.8963.431-2.5607.2599-5.126.4741-7.6943.6427-5.1366.3372-10.2852.4907-15.4327.4605-5.7814-.0339-11.5602-.304-17.3201-.8018-1.3416-.116-2.6257,1.2636-2.5673,2.5673.0667,1.4901,1.1302,2.4431,2.5673,2.5673,10.3371.8934,20.7344,1.0431,31.0929.4438,10.4636-.6054,20.8967-1.9598,31.169-4.0416,5.7052-1.1562,11.3616-2.5463,16.9547-4.1594.7753-.2236,1.3538-.7521,1.6637-1.4865.34-.8057.2207-1.5085-.1294-2.2849-5.6901-12.6175-12.2633-24.8335-19.6698-36.5267-2.0688-3.2662-4.2033-6.4904-6.3983-9.6731l-.921,3.5126c5.4198-3.1439,10.4272-7.4319,13.6289-12.8805,3.1792-5.4103,4.077-11.7519,2.7655-17.8682-2.446-11.4076-12.3922-19.7148-22.8892-23.6672-9.9151-3.7334-21.6732-3.6321-31.1742,1.273-4.4585,2.3018-8.3203,5.8073-10.8986,10.1242-2.8368,4.7498-4.1774,10.5812-3.8057,16.0958.8009,11.8792,9.4807,22.6861,20.8951,26.082,1.4635.4354,2.9526.6924,4.4655.8855-.7389-1.2877-1.4779-2.5754-2.2168-3.8631-7.9379,13.6698-15.1553,27.756-21.6037,42.1885-1.8638,4.1715-3.6618,8.3723-5.404,12.596-.5136,1.2451.5548,2.876,1.7931,3.1581,1.4955.3406,2.6081-.4597,3.1581-1.7931Z" style="stroke-width:0px;"/><path d="m483.1915,228.6385c-3.0431,1.2474-6.0183,2.6348-8.9288,4.1666,32.5637-17.1375,79.1584-6.4385,97.2328,26.5796,7.8187,14.2831,9.8695,30.8802,13.709,46.7041,3.8394,15.8239,10.3738,32.222,23.9077,41.2757,13.534,9.0537,35.4949,6.5622,42.0038-8.3634,5.4054-12.3951-1.5189-26.3447-3.1459-39.7689-1.1735-9.6817.5483-19.6959,4.8879-28.4297,1.2195-2.4543,2.7007-4.8766,4.9192-6.4856,4.3906-3.1845,10.3667-2.4343,15.7366-3.1974,13.1912-1.8746,23.2925-13.6975,26.8786-26.5295,3.5861-12.832,1.8461-26.5138-.6832-39.5952-11.2946-58.4164-37.9739-113.5232-75.0917-160.0239-3.3262-4.1671-7.1292-8.5179-12.3363-9.6641-3.8757-.8531-7.8856.2323-11.705,1.3099-9.1103,2.5704-18.2207,5.1408-27.331,7.7113-5.2209,1.473-11.2778,3.7682-12.574,9.0357-1.5725,6.3901,5.1209,13.1665,2.3943,19.1558-88.8597-16.0708-177.8544,24.0051-268.0553,28.2618-12.5513.5923-25.6959.6263-36.776,6.5523-11.0801,5.926-18.9475,20.1394-13.2077,31.317,6.4375,12.5363,23.8574,13.0661,37.8975,11.8509,25.534-2.21,51.0679-4.42,76.6019-6.6301-31.312,13.5469-62.624,27.0938-93.936,40.6407-8.5937,3.718-17.4737,7.6382-23.71,14.6228-6.2362,6.9847-9.0475,17.9608-3.9787,25.8338,6.8248,10.6004,22.419,9.731,34.7048,6.9013,37.8768-8.7238,74.1826-24.2238,106.681-45.5454-32.6681,26.4558-65.3361,52.9115-98.0042,79.3673-6.3486,5.1414-13.3312,11.7033-12.5323,19.8335,1.134,11.5404,16.2767,15.3424,27.7959,14.0103,36.1849-4.1845,66.3334-28.5934,94.2428-52.0011-13.1536,25.2402-25.4029,50.9516-36.7167,77.0684-2.7177,6.2735-5.4311,13.1867-3.58,19.7682,1.731,6.1546,7.2541,10.6661,13.2664,12.8404,15.0189,5.4314,32.2321-2.1271,42.9047-14.0084,10.6725-11.8812,16.2792-27.3291,21.9286-42.2673,9.2726-24.5188,21.7591-45.5529,45.6704-58.131" style="stroke-width:0px;"/><path d="m482.509,226.1629c-3.2443,1.3448-6.4273,2.802-9.5421,4.4254-2.9316,1.5279-.3387,5.9587,2.5915,4.4336,17.1467-8.9246,37.7958-9.8998,56.0982-4.1013,9.1797,2.9083,17.8818,7.6134,25.0741,14.0478,7.9857,7.1442,13.6145,16.1213,17.1897,26.1967,8.1468,22.959,7.8338,49.2516,23.6984,69.0303,6.5396,8.153,15.3569,13.6635,25.815,14.8033,8.7793.9568,18.3829-1.3421,24.8751-7.5664,8.893-8.526,8.0602-21.1193,5.6103-32.1777-1.4116-6.3719-3.3071-12.7094-3.6663-19.2597-.3596-6.5576.6182-13.1064,2.848-19.2818,1.0566-2.9261,2.3595-6.1023,4.3409-8.5405,2.1746-2.6761,5.2722-3.539,8.5793-3.8715,5.7065-.5738,11.002-.7468,16.3048-3.2118,9.6907-4.5046,16.642-13.9409,19.9555-23.9006,4.4117-13.2605,2.7379-27.713.2282-41.1668-2.3351-12.5179-5.4166-24.9018-9.1393-37.078-7.4827-24.4747-17.6136-48.1526-29.9689-70.5605-6.2609-11.3548-13.101-22.3897-20.4728-33.0566-3.6101-5.2237-7.3477-10.3592-11.2078-15.401-3.5348-4.6169-6.9843-9.7265-11.5527-13.4004-5.1918-4.1752-11.0337-4.714-17.379-3.1617-7.1883,1.7585-14.288,3.9917-21.4101,6.0012-8.9736,2.5319-24.9572,5.0395-23.3877,17.7441.5871,4.7519,4.5224,9.9637,2.5983,14.728l3.1581-1.7931c-31.8458-5.6969-64.2189-4.371-96.137.003-32.5542,4.4611-64.5895,11.9183-96.8368,18.098-16.1878,3.1022-32.4467,5.9112-48.8229,7.8194-8.1143.9455-16.2549,1.6763-24.4124,2.1212-7.7927.4249-15.6087.5232-23.3434,1.6624-13.6787,2.0147-26.7068,8.5292-31.9718,22.0527-4.5279,11.6301.8947,23.6922,12.2592,28.5013,12.1731,5.1512,26.2019,2.961,38.9282,1.8595,17.6306-1.526,35.2612-3.0519,52.8918-4.5779,4.4076-.3815,8.8153-.763,13.2229-1.1445-.4319-1.5947-.8638-3.1894-1.2958-4.7841-22.2851,9.6415-44.5702,19.283-66.8553,28.9244-10.7729,4.6608-21.6387,9.1531-32.3173,14.0264-8.7259,3.9821-17.7114,9.1402-22.6205,17.7255-4.3234,7.5609-5.4471,17.5772-.0651,24.9239,4.8506,6.6213,12.9869,8.9055,20.8652,9.0308,9.2632.1473,18.4138-2.3597,27.2852-4.7381,10.384-2.7839,20.6311-6.0763,30.6937-9.861,22.9242-8.6222,44.8718-19.736,65.3668-33.1452l-3.1111-4.0322c-18.1224,14.6762-36.2449,29.3524-54.3673,44.0286-9.0612,7.3381-18.1224,14.6762-27.1836,22.0143-4.4114,3.5725-8.8228,7.145-13.2341,10.7175-3.7702,3.0533-7.6686,6.0349-10.8359,9.7398-5.1297,6.0004-8.0588,14.5498-3.2121,21.6619,4.1258,6.0543,11.6012,8.5631,18.5688,9.3925,8.5655,1.0196,17.4743-.8555,25.6916-3.1673,9.2212-2.5943,18.0937-6.412,26.52-10.9473,19.3486-10.4141,36.4172-24.5393,53.1856-38.5991-1.3441-1.037-2.6881-2.0741-4.0322-3.1111-10.7923,20.7283-20.9888,41.7642-30.5533,63.0871-2.3545,5.2492-4.7069,10.5042-6.9426,15.8053-2.0303,4.8141-3.9218,9.9489-3.7507,15.259.3092,9.5963,7.7251,16.6259,16.4146,19.5282,18.1433,6.0598,37.2702-4.8749,48.1471-19.025,12.1064-15.7498,16.569-35.3149,24.9658-52.9762,8.5511-17.9858,20.9045-33.4355,38.705-42.8955,2.919-1.5513.3279-5.9851-2.5915-4.4336-14.8292,7.8809-26.5615,19.9347-35.0527,34.3418-9.2248,15.6519-13.6809,33.3204-21.8301,49.458-7.9991,15.8405-21.702,31.3771-40.786,32.0297-8.136.2782-17.9324-2.8933-21.6243-10.8072-2.1129-4.5291-1.1257-9.6028.4162-14.1378,1.7947-5.2782,4.2713-10.3609,6.5314-15.4513,10.0911-22.7283,20.9005-45.1341,32.3846-67.1911,1.3862-2.6625-1.814-4.971-4.0322-3.1111-14.1123,11.8327-28.3883,23.6157-44.1561,33.2099-14.9943,9.1235-32.2215,16.9496-49.9669,18.1962-6.4435.4526-13.9612-.413-19.2499-4.4571-6.4444-4.9279-4.6605-12.84.1132-18.3002,3.0289-3.4644,6.6838-6.2938,10.2455-9.1783,4.1729-3.3794,8.3459-6.7588,12.5188-10.1382,8.4651-6.8553,16.9302-13.7107,25.3952-20.566,19.0762-15.4486,38.1525-30.8972,57.2287-46.3459,2.262-1.8319-.6861-5.6188-3.1111-4.0322-17.1109,11.1951-35.2423,20.8617-54.141,28.68-9.4246,3.8989-19.0297,7.3621-28.7747,10.3722-9.2671,2.8625-18.7732,5.7006-28.3608,7.2625-7.1015,1.1569-15.5327,1.576-21.9358-2.2812-7.4106-4.4641-8.3395-13.6532-5.021-21.0469,3.8537-8.5862,12.3226-13.573,20.5015-17.4127,9.8316-4.6156,19.9311-8.7091,29.8987-13.0215,23.5545-10.1907,47.109-20.3814,70.6636-30.572,2.3215-1.0044,1.1614-4.9968-1.2958-4.7841-16.8707,1.4602-33.7413,2.9204-50.612,4.3806-8.3593.7235-16.7185,1.4494-25.078,2.1706-5.9256.5112-11.9177.8134-17.8426.1174-5.1699-.6073-10.6985-2.0553-14.7326-5.5133-4.2929-3.6798-6.3026-9.2158-5.3636-14.7951.9791-5.8178,4.4434-11.0234,8.8461-14.843,5.2178-4.5268,12.1544-6.6396,18.8414-7.8049,7.4818-1.3039,15.125-1.3451,22.6901-1.73,7.7353-.3936,15.456-1.0478,23.1538-1.9007,15.5662-1.7246,31.0346-4.2408,46.4287-7.1031,30.9342-5.7517,61.6086-12.907,92.7086-17.7566,30.3903-4.7389,61.4052-7.1342,92.0418-3.3337,3.9417.489,7.8659,1.1034,11.7755,1.8028,1.4911.2668,2.5964-.4022,3.1581-1.7931,2.0667-5.1175-.8247-9.9993-2.1065-14.8863-1.3837-5.2751,1.6541-8.2949,6.3615-10.1632,6.1154-2.4272,12.7927-3.7926,19.1197-5.5777,3.2327-.9121,6.4654-1.8242,9.6981-2.7363,3.4853-.9834,7.0799-2.2781,10.7403-2.2657,5.9821.0203,10.0139,4.9285,13.448,9.2134,3.9158,4.8858,7.6874,9.889,11.3459,14.9701,7.3447,10.2006,14.1978,20.7554,20.517,31.6213,12.5175,21.5241,22.9346,44.2631,30.8519,67.8749,3.9477,11.7732,7.2818,23.7538,9.9504,35.8815,2.859,12.9929,5.7024,26.666,3.861,40.0092-1.491,10.8048-6.7395,21.615-16.165,27.6278-4.6371,2.9582-9.49,3.8674-14.8889,4.2256-6.0246.3997-11.5426,1.5065-15.3269,6.6495-3.5163,4.7788-5.5943,10.9724-6.7756,16.7363-1.2962,6.3248-1.4204,12.7358-.4626,19.1141,1.7485,11.644,8.271,25.1642,2.9594,36.7187-3.6454,7.93-12.3463,11.6527-20.6856,11.8455-9.853.2278-18.4107-4.1361-24.9339-11.376-16.3081-18.0997-16.1802-44.5571-23.3946-66.5862-3.3482-10.2236-8.3901-19.6983-15.8876-27.4802-6.4515-6.6961-14.3448-11.9887-22.8638-15.6792-17.2467-7.4713-37.1957-8.9703-55.2496-3.5315-4.3794,1.3193-8.6304,3.0695-12.6866,5.1807l2.5915,4.4336c2.718-1.4166,5.4836-2.7339,8.3155-3.9078,3.0091-1.2473,1.6897-6.2174-1.365-4.9512h0Z" style="stroke-width:0px;"/><path d="m618.9538,922.3977c10.1875-6.2243,20.3416-12.406,29.9757-19.4797,9.473-6.9554,18.5615-14.4336,27.2188-22.381,8.7711-8.0519,17.3238-16.3694,25.2799-25.2329,7.914-8.8166,15.3601-18.0541,22.3237-27.6387,13.9127-19.1493,25.5376-40.1145,35.0104-61.7879,9.5405-21.8283,16.926-44.6075,21.6281-67.9697,4.6917-23.3109,6.9643-47.2735,6.5005-71.0582-.0563-2.8888-.1632-5.7754-.2909-8.6618-.124-2.8021-3.7114-3.7947-5.2326-1.4172-2.065,3.2274-4.0601,6.4881-5.9284,9.8326-1.2325,2.2064,1.9814,4.9797,3.6541,2.8195,2.4786-3.2011,4.8382-6.4749,7.1235-9.8176-1.7442-.4724-3.4884-.9448-5.2326-1.4172,1.4323,23.4501.0288,46.933-4.001,70.0771-4.0351,23.175-10.4907,45.953-19.1883,67.8081-8.6648,21.7726-19.6273,42.6473-32.5433,62.1968-12.9566,19.6111-27.5064,38.0543-43.9972,54.8261-8.2206,8.3607-17.2217,16.0664-26.422,23.3225-9.3048,7.3385-19.0109,14.1835-29.0764,20.4388-2.4597,1.5286-4.9418,2.9874-7.4903,4.3628-.7715.4164-.064,1.6374.6884,1.1777h0Z" style="stroke-width:0px;"/><path d="m212.2101,309.7727c-9.8822-5.8675-19.4556-12.191-28.7833-18.9045-2.3631-1.7008-4.7097-3.4244-7.0396-5.1704-1.1652-.8732-2.3262-1.752-3.4829-2.6364-.548-.419-1.0951-.839-1.6411-1.2606.0792.0611.2761.2138-.0837-.0649-.1207-.0935-.2414-.187-.3621-.2806-.3318-.2574-.6632-.5153-.9943-.7737-4.518-3.5256-8.9947-7.1048-13.3952-10.7762-4.9645-4.142-9.7442-8.4992-14.733-12.6089-1.0107-.8326-2.5695-1.0633-3.5456,0-.9057.9866-1.0077,2.5721,0,3.5456,4.1817,4.0399,8.7117,7.7096,13.2293,11.3667,4.5596,3.6912,9.1797,7.3162,13.8941,10.8079,9.2727,6.8676,18.8091,13.379,28.5811,19.5154,5.5052,3.457,11.0458,6.8651,16.6555,10.1501,1.8755,1.0983,3.5659-1.8021,1.7007-2.9095h0Z" style="stroke-width:0px;"/><path d="m196.3822,342.7343c-4.6389-.506-9.2444-1.1639-13.8602-1.8436-4.598-.6771-9.271-1.2857-13.8927-2.0203-9.2883-1.4764-18.5386-3.1969-27.7367-5.1586-2.5496-.5437-5.0952-1.1061-7.6366-1.6871-2.7614-.6313-5.4841-1.3549-8.3023-1.6838-1.1741-.137-2.2023,1.0141-2.3442,2.0695-.1639,1.2196.5744,2.2206,1.7097,2.6188,2.2372.7846,4.5718,1.1902,6.8904,1.662,2.3188.4718,4.6408.9282,6.9657,1.3691,4.6509.8822,9.3136,1.7027,13.9863,2.4612,9.3936,1.5248,18.8305,2.7971,28.2914,3.8241,5.2906.5743,10.6221.8825,15.9291,1.2769.7787.0579,1.4441-.7051,1.4441-1.4441,0-.8512-.6654-1.3592-1.4441-1.4441h0Z" style="stroke-width:0px;"/><path d="m196.4877,387.4434c-7.1931.1624-14.3318,1.029-21.4051,2.3331-7.0082,1.292-13.9251,3.0561-20.6902,5.2966-3.9431,1.3059-7.8239,2.7568-11.6084,4.4708-1.1219.5081-1.4795,2.2217-.8419,3.2107.7609,1.1801,1.9964,1.3564,3.2107.8419-.419.1775.2829-.1187.2943-.1234.214-.0894.4282-.1783.6426-.2667.3574-.1474.7153-.2934,1.0737-.4381.5497-.2219,1.0941-.4554,1.6385-.6899.1419-.0611.2838-.122.4259-.1827.142-.0607.2842-.1212.4264-.1815-.2056.0866-.1787.0755.0806-.0335,1.6113-.6711,3.231-1.321,4.8627-1.9412,3.2964-1.253,6.6354-2.3918,10.0056-3.4298,6.6534-2.0491,13.4414-3.6606,20.3069-4.8149,3.8402-.6456,7.7099-1.193,11.5777-1.6445.6455-.0753,1.2034-.4992,1.2034-1.2034,0-.6409-.5507-1.2182-1.2034-1.2034h0Z" style="stroke-width:0px;"/><path d="m762.7091,234.5877c19.5713-.6017,37.596,8.5055,51.4038,21.9295,13.984,13.5953,23.8903,31.8329,27.1932,51.0959,1.653,9.6405,1.5548,19.9792-1.9735,29.2078-3.0608,8.0056-10.0657,16.7471-19.462,16.5445-5.0121-.1081-7.7392-3.9254-7.6125-8.7574.0981-3.7431,1.6163-7.3992,4.0863-10.1997,5.2548-5.958,13.6236-8.5329,21.3924-8.2139,9.3907.3855,17.4471,5.9092,23.5854,12.6929,7.0926,7.8383,11.9166,17.4937,16.282,27.0323,9.7065,21.2092,17.8713,45.1167,12.331,68.5932-2.3319,9.881-6.9373,19.3258-14.2365,26.4894-3.2007,3.1412-6.7324,5.6684-11.0768,6.9349-3.4566,1.0077-7.6906,1.4867-10.9977-.2776-4.1879-2.2341-4.7043-7.3309-2.9041-11.3773,1.6298-3.6636,4.8055-6.4748,8.5178-7.9159,7.6198-2.958,16.7167-1.1145,23.303,3.4539,8.3059,5.7611,12.301,16.2385,14.2759,25.7491,2.1915,10.5539,2.5556,21.6101,2.4198,32.3605-.2701,21.386-4.2595,43.5017-15.257,62.1125-2.6348,4.4588-5.6503,8.7539-9.0525,12.6625-1.418,1.629.9557,4.022,2.3827,2.3827,15.5981-17.9193,22.6373-41.1136,24.7344-64.4445,1.0543-11.7295,1.1256-23.6514.0411-35.382-1.058-11.4439-3.5456-23.3004-10.7286-32.5794-5.9033-7.6259-15.053-12.1615-24.7487-12.0281-9.5253.1311-19.4734,5.7419-21.1616,15.8271-.8441,5.0425,1.0671,10.2496,5.5857,12.8819,3.8559,2.2463,8.6213,2.2745,12.8776,1.3942,10.3382-2.1382,18.2451-10.6536,23.4103-19.4194,12.9238-21.9324,10.0265-48.4858,1.7646-71.4852-4.242-11.8087-9.3709-23.6934-15.8917-34.4392-5.7966-9.5524-13.512-18.6279-23.9562-23.2032-8.4722-3.7114-18.3937-3.4041-26.817.2945-8.2479,3.6216-14.8351,11.3095-14.7231,20.6683.0655,5.4756,2.9679,10.5276,8.3881,12.1505,4.7156,1.4119,10.0465.0538,14.2114-2.3235,9.1699-5.2341,14.1383-16.1845,15.6662-26.2214,3.2569-21.3956-4.8012-43.9001-17.1981-61.1459-12.2077-16.9825-29.9996-30.5703-50.9149-34.3351-5.0012-.9002-10.0613-1.2968-15.1402-1.076-1.5154.0659-1.5286,2.4137,0,2.3667h0Z" style="stroke-width:0px;"/><path d="m319.3684,698.0347c1.0076-.6907,1.8735-1.4425,2.699-2.3419.8306-.9051,1.6027-1.8597,2.3413-2.841,1.4119-1.8759,2.8585-3.9559,3.4769-6.2396.5817-2.1482-2.4534-3.446-3.5926-1.5146-.3484.5908-.6556,1.1474-.9136,1.7882.0771-.1914.066-.152-.007.0149-.0496.1133-.099.2267-.1494.3397-.1134.2539-.2301.5064-.3497.7574-.4773,1.0011-1.0043,1.9783-1.5789,2.9269-1.184,1.955-2.4523,3.4507-3.737,5.299-.7476,1.0755.7369,2.5475,1.8112,1.8112h0Z" style="stroke-width:0px;"/><path d="m278.658,747.9532c1.7523-1.4401,3.3873-3.0738,4.6918-4.9348.6243-.8906,1.1983-1.8167,1.7168-2.7728.5809-1.0714.9602-2.1706,1.2735-3.3447.4171-1.5635-1.8984-2.6394-2.6761-1.1282-.4828.9382-1.0025,1.848-1.4694,2.7942-.4682.9488-.9889,1.8718-1.5593,2.7629-1.1152,1.7422-2.2693,3.4039-3.6791,4.9216-.4422.4761-.4715,1.2304,0,1.7019.497.497,1.1982.414,1.7019,0h0Z" style="stroke-width:0px;"/><path d="m239.941,778.6501c1.1429-.7312,2.2235-1.5716,3.2077-2.5059.4596-.4363.8983-.8948,1.3138-1.3733.2642-.3043.5078-.6011.6789-.9683.1584-.34.3055-.6851.449-1.0317.1354-.3269-.0879-.7932-.3871-.9513-.3435-.1815-.7334-.1292-1.0208.1317-.2215.2011-.4467.398-.6767.5893-.2524.21-.4418.4341-.6509.6864-.3951.4769-.8125.9351-1.2503,1.373-.4266.4267-.8728.8339-1.3368,1.2197-.1159.0964-.2329.1915-.3509.2852-.019.0151-.2578.1974-.0712.0568-.0604.0455-.1204.0914-.181.1366-.2544.1898-.5136.3728-.7765.5506-.4511.3052-.6933.932-.3742,1.427.296.4592.9354.6887,1.427.3742h0Z" style="stroke-width:0px;"/></svg>